<svg width="401" height="244" viewBox="0 0 401 244" fill="none" xmlns="http://www.w3.org/2000/svg">
<g filter="url(#filter0_d)">
<rect x="4" width="391" height="235" rx="20" fill="#CE6920"/>
<g filter="url(#filter1_d)">
<path d="M32.376 28.064V35.52H40.504V37.92H32.376V45.6H41.464V48H29.464V25.664H41.464V28.064H32.376ZM52.3983 45.312L57.8383 30.464H60.9423L54.0623 48H50.6703L43.7903 30.464H46.9263L52.3983 45.312ZM79.8078 38.56C79.8078 39.1147 79.7758 39.7013 79.7118 40.32H65.6958C65.8024 42.048 66.3891 43.4027 67.4558 44.384C68.5438 45.344 69.8558 45.824 71.3918 45.824C72.6504 45.824 73.6958 45.536 74.5278 44.96C75.3811 44.3627 75.9784 43.5733 76.3198 42.592H79.4558C78.9864 44.2773 78.0478 45.6533 76.6398 46.72C75.2318 47.7653 73.4824 48.288 71.3918 48.288C69.7278 48.288 68.2344 47.9147 66.9118 47.168C65.6104 46.4213 64.5864 45.3653 63.8398 44C63.0931 42.6133 62.7198 41.0133 62.7198 39.2C62.7198 37.3867 63.0824 35.7973 63.8078 34.432C64.5331 33.0667 65.5464 32.0213 66.8478 31.296C68.1704 30.5493 69.6851 30.176 71.3918 30.176C73.0558 30.176 74.5278 30.5387 75.8078 31.264C77.0878 31.9893 78.0691 32.992 78.7518 34.272C79.4558 35.5307 79.8078 36.96 79.8078 38.56ZM76.7998 37.952C76.7998 36.8427 76.5544 35.8933 76.0638 35.104C75.5731 34.2933 74.9011 33.6853 74.0478 33.28C73.2158 32.8533 72.2878 32.64 71.2638 32.64C69.7918 32.64 68.5331 33.1093 67.4878 34.048C66.4638 34.9867 65.8771 36.288 65.7278 37.952H76.7998ZM92.1955 30.144C94.3288 30.144 96.0568 30.7947 97.3795 32.096C98.7022 33.376 99.3635 35.232 99.3635 37.664V48H96.4835V38.08C96.4835 36.3307 96.0462 34.9973 95.1715 34.08C94.2968 33.1413 93.1022 32.672 91.5875 32.672C90.0515 32.672 88.8248 33.152 87.9075 34.112C87.0115 35.072 86.5635 36.4693 86.5635 38.304V48H83.6515V30.464H86.5635V32.96C87.1395 32.064 87.9182 31.3707 88.8995 30.88C89.9022 30.3893 91.0008 30.144 92.1955 30.144ZM107.672 32.864V43.2C107.672 44.0533 107.854 44.6613 108.216 45.024C108.579 45.3653 109.208 45.536 110.104 45.536H112.248V48H109.624C108.003 48 106.787 47.6267 105.976 46.88C105.166 46.1333 104.76 44.9067 104.76 43.2V32.864H102.488V30.464H104.76V26.048H107.672V30.464H112.248V32.864H107.672ZM121.985 48.288C120.641 48.288 119.435 48.064 118.369 47.616C117.302 47.1467 116.459 46.5067 115.841 45.696C115.222 44.864 114.881 43.9147 114.817 42.848H117.825C117.91 43.7227 118.315 44.4373 119.041 44.992C119.787 45.5467 120.758 45.824 121.953 45.824C123.062 45.824 123.937 45.5787 124.577 45.088C125.217 44.5973 125.537 43.9787 125.537 43.232C125.537 42.464 125.195 41.8987 124.513 41.536C123.83 41.152 122.774 40.7787 121.345 40.416C120.043 40.0747 118.977 39.7333 118.145 39.392C117.334 39.0293 116.63 38.5067 116.033 37.824C115.457 37.12 115.169 36.2027 115.169 35.072C115.169 34.176 115.435 33.3547 115.969 32.608C116.502 31.8613 117.259 31.2747 118.241 30.848C119.222 30.4 120.342 30.176 121.601 30.176C123.542 30.176 125.11 30.6667 126.305 31.648C127.499 32.6293 128.139 33.9733 128.225 35.68H125.313C125.249 34.7627 124.875 34.0267 124.193 33.472C123.531 32.9173 122.635 32.64 121.505 32.64C120.459 32.64 119.627 32.864 119.009 33.312C118.39 33.76 118.081 34.3467 118.081 35.072C118.081 35.648 118.262 36.128 118.625 36.512C119.009 36.8747 119.478 37.1733 120.033 37.408C120.609 37.6213 121.398 37.8667 122.401 38.144C123.659 38.4853 124.683 38.8267 125.473 39.168C126.262 39.488 126.934 39.9787 127.489 40.64C128.065 41.3013 128.363 42.1653 128.385 43.232C128.385 44.192 128.118 45.056 127.585 45.824C127.051 46.592 126.294 47.2 125.313 47.648C124.353 48.0747 123.243 48.288 121.985 48.288Z" fill="white"/>
</g>
<g filter="url(#filter2_i)">
<path d="M78.5 76C42.1 59.6 4 99.5 4 116.233V215.233C4 229.233 17.5 235.5 26 235C138.167 236.333 366.5 236.266 378 234.999C391.115 233.555 395.5 221.166 396 215.999C396.667 158.999 396 39.5788 396 23.499C396 4.76575 382 0 374 0H330.5C328.5 0.5 263 -2.5 216 20.5C188.552 33.9321 193 44.5 158 65.5C148.223 71.3661 124 96.5 78.5 76Z" fill="#FFC7B6"/>
</g>
<g clip-path="url(#clip0)">
<path d="M260.035 80C261.135 80 262.19 80.437 262.968 81.2149C263.746 81.9928 264.183 83.0478 264.183 84.1479V88.2957H330.549V84.1479C330.549 83.0478 330.986 81.9928 331.764 81.2149C332.541 80.437 333.596 80 334.697 80C335.797 80 336.852 80.437 337.629 81.2149C338.407 81.9928 338.844 83.0478 338.844 84.1479V88.2957H347.14C351.54 88.2957 355.76 90.0437 358.872 93.1552C361.983 96.2667 363.732 100.487 363.732 104.887V196.14C363.732 200.54 361.983 204.76 358.872 207.872C355.76 210.983 351.54 212.732 347.14 212.732H247.591C243.191 212.732 238.971 210.983 235.86 207.872C232.748 204.76 231 200.54 231 196.14V104.887C231 100.487 232.748 96.2667 235.86 93.1552C238.971 90.0437 243.191 88.2957 247.591 88.2957H255.887V84.1479C255.887 83.0478 256.324 81.9928 257.102 81.2149C257.88 80.437 258.935 80 260.035 80ZM240.468 104.587L239.296 196.14C239.296 198.34 240.17 200.45 241.725 202.006C243.281 203.562 245.391 204.436 247.591 204.436H347.14C349.34 204.436 351.45 203.562 353.006 202.006C354.562 200.45 355.436 198.34 355.436 196.14L353.044 103.187L240.468 104.587Z" fill="#A52800"/>
<g clip-path="url(#clip1)">
<path d="M282.973 147.884L281.373 150.791L269.931 171.554L266.577 168.195L265.419 170.118L255.14 187.222L253.549 189.874L308.359 189.913L307.313 187.469L302.066 175.201L301.048 172.823L297.422 176.443L284.47 150.846L282.975 147.884L282.973 147.884ZM282.839 155.386L288.158 165.895L286.801 167.057L282.809 163.632L278.814 167.051L277.185 165.65L282.839 155.386V155.386ZM282.807 168.245L286.799 171.67L289.783 169.114L295.382 180.182L296.47 182.343L299.857 178.961L303.04 186.406L259.738 186.374C262.246 182.197 264.758 178.021 267.268 173.846L270.749 177.331L271.875 175.289C273.07 173.121 274.266 170.955 275.459 168.787L278.81 171.662L282.807 168.245V168.245Z" fill="#BF5F40"/>
</g>
<path d="M315.646 149.967L314.143 152.698L303.395 172.202L300.244 169.047L299.157 170.853L289.501 186.92L288.007 189.41L339.492 189.447L338.509 187.151L333.58 175.627L332.624 173.393L329.218 176.794L317.052 152.75L315.647 149.967L315.646 149.967ZM315.521 157.014L320.516 166.886L319.242 167.977L315.492 164.761L311.739 167.972L310.209 166.656L315.521 157.014ZM315.49 169.094L319.24 172.311L322.043 169.91L327.302 180.306L328.324 182.336L331.506 179.159L334.496 186.152L293.82 186.123C296.176 182.2 298.536 178.276 300.894 174.354L304.163 177.629L305.221 175.71C306.343 173.674 307.467 171.639 308.588 169.602L311.736 172.304L315.49 169.094Z" fill="#6D220A"/>
<path d="M258.325 129.397L261.91 129.4L261.715 128.815L260.144 123.954C260.023 124.383 259.482 126.008 258.52 128.827L258.325 129.397ZM263.137 133.091L262.254 130.435L257.979 130.432L257.077 133.086L255.772 133.085L259.304 122.978L260.984 122.979L264.442 133.092L263.137 133.091ZM270.799 125.491L271.984 125.492L271.979 133.097L270.794 133.096L270.794 131.776C270.394 132.716 269.598 133.185 268.408 133.184C267.658 133.184 267.064 132.964 266.624 132.523C266.194 132.073 265.98 131.473 265.98 130.723L265.984 125.488L267.169 125.489L267.165 130.424C267.165 130.974 267.305 131.394 267.585 131.684C267.864 131.974 268.244 132.119 268.724 132.12C269.354 132.12 269.854 131.901 270.225 131.461C270.605 131.021 270.795 130.426 270.796 129.676L270.799 125.491ZM277.02 131.856C277.57 131.856 278.055 131.646 278.475 131.227C278.906 130.797 279.121 130.162 279.122 129.322C279.123 128.352 278.918 127.632 278.508 127.162C278.099 126.692 277.624 126.456 277.084 126.456C276.434 126.455 275.919 126.715 275.538 127.235C275.158 127.744 274.967 128.414 274.967 129.244C274.966 130.094 275.176 130.744 275.595 131.195C276.015 131.635 276.49 131.855 277.02 131.856ZM279.125 125.497L280.31 125.498L280.305 132.488C280.304 133.648 279.983 134.518 279.343 135.097C278.702 135.687 277.877 135.981 276.867 135.981C275.947 135.98 275.162 135.824 274.512 135.514L274.513 134.329C275.153 134.699 275.903 134.885 276.763 134.886C277.493 134.886 278.068 134.692 278.488 134.302C278.909 133.912 279.119 133.302 279.12 132.472L279.12 131.617C278.62 132.477 277.874 132.906 276.884 132.906C276.014 132.905 275.269 132.584 274.65 131.944C274.04 131.304 273.736 130.413 273.737 129.273C273.738 128.143 274.023 127.214 274.594 126.484C275.164 125.754 275.91 125.39 276.83 125.391C277.87 125.391 278.634 125.847 279.124 126.757L279.125 125.497ZM285.244 125.982L285.245 124.707L287.571 123.298L288.681 123.299L288.674 133.109L287.504 133.108L287.51 124.588L285.244 125.982ZM295.581 127.594L295.581 127.519C295.582 126.569 295.413 125.794 295.073 125.194C294.743 124.584 294.209 124.278 293.469 124.278C292.899 124.277 292.444 124.467 292.103 124.847C291.763 125.226 291.593 125.746 291.592 126.406C291.592 127.096 291.771 127.626 292.131 127.997C292.491 128.367 292.981 128.552 293.601 128.553C294.421 128.553 295.081 128.234 295.581 127.594ZM290.777 132.946L290.778 131.776C291.298 132.006 291.848 132.121 292.428 132.122C294.238 132.123 295.269 130.989 295.52 128.719C295.02 129.309 294.28 129.603 293.3 129.603C292.5 129.602 291.81 129.311 291.23 128.731C290.651 128.141 290.361 127.365 290.362 126.405C290.363 125.475 290.638 124.706 291.189 124.096C291.739 123.486 292.489 123.182 293.439 123.183C294.539 123.183 295.364 123.594 295.914 124.414C296.473 125.235 296.752 126.27 296.751 127.52C296.75 129.3 296.389 130.7 295.668 131.719C294.958 132.729 293.892 133.233 292.472 133.232C291.892 133.232 291.327 133.136 290.777 132.946ZM297.255 134.96L298.652 131.601L300.227 131.603L298.29 134.961L297.255 134.96ZM306.613 132.087L311.173 132.091L311.172 133.126L304.977 133.121L304.978 132.116C308.08 129.778 309.631 127.829 309.632 126.269C309.633 125.649 309.453 125.174 309.093 124.844C308.733 124.504 308.248 124.333 307.638 124.333C306.848 124.332 306.068 124.627 305.298 125.216L305.299 124.031C306.009 123.482 306.824 123.207 307.744 123.208C308.624 123.209 309.364 123.464 309.964 123.975C310.563 124.485 310.863 125.21 310.862 126.15C310.861 127.92 309.444 129.899 306.613 132.087ZM312.468 128.191C312.469 126.651 312.78 125.437 313.4 124.547C314.031 123.648 314.856 123.198 315.876 123.199C316.936 123.2 317.776 123.65 318.395 124.551C319.025 125.441 319.339 126.656 319.338 128.196C319.337 129.726 319.036 130.951 318.435 131.871C317.834 132.79 316.979 133.25 315.869 133.249C314.839 133.248 314.014 132.788 313.395 131.867C312.776 130.947 312.467 129.721 312.468 128.191ZM314.33 125.343C313.899 126.012 313.684 126.962 313.683 128.192C313.682 129.422 313.891 130.387 314.311 131.088C314.73 131.778 315.25 132.123 315.87 132.124C316.56 132.124 317.105 131.785 317.506 131.105C317.916 130.425 318.122 129.456 318.123 128.196C318.124 126.946 317.909 125.99 317.48 125.33C317.06 124.66 316.526 124.324 315.876 124.324C315.276 124.323 314.76 124.663 314.33 125.343ZM322.184 132.098L326.744 132.102L326.743 133.137L320.548 133.132L320.549 132.127C323.651 129.79 325.202 127.841 325.203 126.281C325.204 125.661 325.024 125.186 324.664 124.855C324.305 124.515 323.82 124.345 323.21 124.344C322.42 124.344 321.64 124.638 320.869 125.228L320.87 124.043C321.58 123.493 322.396 123.219 323.316 123.219C324.196 123.22 324.935 123.475 325.535 123.986C326.135 124.496 326.434 125.222 326.433 126.162C326.432 127.932 325.016 129.911 322.184 132.098ZM327.666 126.012L327.667 124.737L329.993 123.329L331.103 123.33L331.095 133.14L329.925 133.139L329.932 124.619L327.666 126.012Z" fill="#BF5F40"/>
</g>
<g clip-path="url(#clip2)">
<rect width="132.732" height="132.732" transform="translate(176 64)" fill="#FFC7B6"/>
<path d="M205.035 64C206.135 64 207.19 64.437 207.968 65.2149C208.746 65.9928 209.183 67.0478 209.183 68.1479V72.2957H275.549V68.1479C275.549 67.0478 275.986 65.9928 276.764 65.2149C277.541 64.437 278.596 64 279.697 64C280.797 64 281.852 64.437 282.629 65.2149C283.407 65.9928 283.844 67.0478 283.844 68.1479V72.2957H292.14C296.54 72.2957 300.76 74.0437 303.872 77.1552C306.983 80.2667 308.732 84.4868 308.732 88.8872V180.14C308.732 184.54 306.983 188.76 303.872 191.872C300.76 194.983 296.54 196.732 292.14 196.732H192.591C188.191 196.732 183.971 194.983 180.86 191.872C177.748 188.76 176 184.54 176 180.14V88.8872C176 84.4868 177.748 80.2667 180.86 77.1552C183.971 74.0437 188.191 72.2957 192.591 72.2957H200.887V68.1479C200.887 67.0478 201.324 65.9928 202.102 65.2149C202.88 64.437 203.935 64 205.035 64ZM185.468 88.5867L184.296 180.14C184.296 182.34 185.17 184.45 186.725 186.006C188.281 187.562 190.391 188.436 192.591 188.436H292.14C294.34 188.436 296.45 187.562 298.006 186.006C299.562 184.45 300.436 182.34 300.436 180.14L298.044 87.1869L185.468 88.5867Z" fill="#A52800"/>
<g clip-path="url(#clip3)">
<path d="M227.973 131.884L226.373 134.791L214.931 155.554L211.577 152.195L210.419 154.118L200.14 171.222L198.549 173.874L253.359 173.913L252.313 171.469L247.066 159.201L246.048 156.823L242.422 160.443L229.47 134.846L227.975 131.884L227.973 131.884ZM227.839 139.386L233.158 149.895L231.801 151.057L227.809 147.632L223.814 151.051L222.185 149.65L227.839 139.386V139.386ZM227.807 152.245L231.799 155.67L234.783 153.114L240.382 164.182L241.47 166.343L244.857 162.961L248.04 170.406L204.738 170.374C207.246 166.197 209.758 162.021 212.268 157.846L215.749 161.331L216.875 159.289C218.07 157.121 219.266 154.955 220.459 152.787L223.81 155.662L227.807 152.245V152.245Z" fill="#6D220A"/>
</g>
<path d="M260.646 133.967L259.143 136.698L248.395 156.202L245.244 153.047L244.157 154.853L234.501 170.92L233.007 173.41L284.492 173.447L283.509 171.151L278.58 159.627L277.624 157.393L274.218 160.794L262.052 136.75L260.647 133.967L260.646 133.967ZM260.521 141.014L265.516 150.886L264.242 151.977L260.492 148.761L256.739 151.972L255.209 150.656L260.521 141.014ZM260.49 153.094L264.24 156.311L267.043 153.91L272.302 164.306L273.324 166.336L276.506 163.159L279.496 170.152L238.82 170.123C241.176 166.2 243.536 162.276 245.894 158.354L249.163 161.629L250.221 159.71C251.343 157.674 252.467 155.639 253.588 153.602L256.736 156.304L260.49 153.094Z" fill="#6D220A"/>
<path d="M203.325 113.397L206.91 113.4L206.715 112.815L205.144 107.954C205.023 108.383 204.482 110.008 203.52 112.827L203.325 113.397ZM208.137 117.091L207.254 114.435L202.979 114.432L202.077 117.086L200.772 117.085L204.304 106.978L205.984 106.979L209.442 117.092L208.137 117.091ZM215.799 109.491L216.984 109.492L216.979 117.097L215.794 117.096L215.794 115.776C215.394 116.716 214.598 117.185 213.408 117.184C212.658 117.184 212.064 116.964 211.624 116.523C211.194 116.073 210.98 115.473 210.98 114.723L210.984 109.488L212.169 109.489L212.165 114.424C212.165 114.974 212.305 115.394 212.585 115.684C212.864 115.974 213.244 116.119 213.724 116.12C214.354 116.12 214.854 115.901 215.225 115.461C215.605 115.021 215.795 114.426 215.796 113.676L215.799 109.491ZM222.02 115.856C222.57 115.856 223.055 115.646 223.475 115.227C223.906 114.797 224.121 114.162 224.122 113.322C224.123 112.352 223.918 111.632 223.508 111.162C223.099 110.692 222.624 110.456 222.084 110.456C221.434 110.455 220.919 110.715 220.538 111.235C220.158 111.744 219.967 112.414 219.967 113.244C219.966 114.094 220.176 114.744 220.595 115.195C221.015 115.635 221.49 115.855 222.02 115.856ZM224.125 109.497L225.31 109.498L225.305 116.488C225.304 117.648 224.983 118.518 224.343 119.097C223.702 119.687 222.877 119.981 221.867 119.981C220.947 119.98 220.162 119.824 219.512 119.514L219.513 118.329C220.153 118.699 220.903 118.885 221.763 118.886C222.493 118.886 223.068 118.692 223.488 118.302C223.909 117.912 224.119 117.302 224.12 116.472L224.12 115.617C223.62 116.477 222.874 116.906 221.884 116.906C221.014 116.905 220.269 116.584 219.65 115.944C219.04 115.304 218.736 114.413 218.737 113.273C218.738 112.143 219.023 111.214 219.594 110.484C220.164 109.754 220.91 109.39 221.83 109.391C222.87 109.391 223.634 109.847 224.124 110.757L224.125 109.497ZM230.244 109.982L230.245 108.707L232.571 107.298L233.681 107.299L233.674 117.109L232.504 117.108L232.51 108.588L230.244 109.982ZM240.581 111.594L240.581 111.519C240.582 110.569 240.413 109.794 240.073 109.194C239.743 108.584 239.209 108.278 238.469 108.278C237.899 108.277 237.444 108.467 237.103 108.847C236.763 109.226 236.593 109.746 236.592 110.406C236.592 111.096 236.771 111.626 237.131 111.997C237.491 112.367 237.981 112.552 238.601 112.553C239.421 112.553 240.081 112.234 240.581 111.594ZM235.777 116.946L235.778 115.776C236.298 116.006 236.848 116.121 237.428 116.122C239.238 116.123 240.269 114.989 240.52 112.719C240.02 113.309 239.28 113.603 238.3 113.603C237.5 113.602 236.81 113.311 236.23 112.731C235.651 112.141 235.361 111.365 235.362 110.405C235.363 109.475 235.638 108.706 236.189 108.096C236.739 107.486 237.489 107.182 238.439 107.183C239.539 107.183 240.364 107.594 240.914 108.414C241.473 109.235 241.752 110.27 241.751 111.52C241.75 113.3 241.389 114.7 240.668 115.719C239.958 116.729 238.892 117.233 237.472 117.232C236.892 117.232 236.327 117.136 235.777 116.946ZM242.255 118.96L243.652 115.601L245.227 115.603L243.29 118.961L242.255 118.96ZM251.613 116.087L256.173 116.091L256.172 117.126L249.977 117.121L249.978 116.116C253.08 113.778 254.631 111.829 254.632 110.269C254.633 109.649 254.453 109.174 254.093 108.844C253.733 108.504 253.248 108.333 252.638 108.333C251.848 108.332 251.068 108.627 250.298 109.216L250.299 108.031C251.009 107.482 251.824 107.207 252.744 107.208C253.624 107.209 254.364 107.464 254.964 107.975C255.563 108.485 255.863 109.21 255.862 110.15C255.861 111.92 254.444 113.899 251.613 116.087ZM257.468 112.191C257.469 110.651 257.78 109.437 258.4 108.547C259.031 107.648 259.856 107.198 260.876 107.199C261.936 107.2 262.776 107.65 263.395 108.551C264.025 109.441 264.339 110.656 264.338 112.196C264.337 113.726 264.036 114.951 263.435 115.871C262.834 116.79 261.979 117.25 260.869 117.249C259.839 117.248 259.014 116.788 258.395 115.867C257.776 114.947 257.467 113.721 257.468 112.191ZM259.33 109.343C258.899 110.012 258.684 110.962 258.683 112.192C258.682 113.422 258.891 114.387 259.311 115.088C259.73 115.778 260.25 116.123 260.87 116.124C261.56 116.124 262.105 115.785 262.506 115.105C262.916 114.425 263.122 113.456 263.123 112.196C263.124 110.946 262.909 109.99 262.48 109.33C262.06 108.66 261.526 108.324 260.876 108.324C260.276 108.323 259.76 108.663 259.33 109.343ZM267.184 116.098L271.744 116.102L271.743 117.137L265.548 117.132L265.549 116.127C268.651 113.79 270.202 111.841 270.203 110.281C270.204 109.661 270.024 109.186 269.664 108.855C269.305 108.515 268.82 108.345 268.21 108.344C267.42 108.344 266.64 108.638 265.869 109.228L265.87 108.043C266.58 107.493 267.396 107.219 268.316 107.219C269.196 107.22 269.935 107.475 270.535 107.986C271.135 108.496 271.434 109.222 271.433 110.162C271.432 111.932 270.016 113.911 267.184 116.098ZM272.666 110.012L272.667 108.737L274.993 107.329L276.103 107.33L276.095 117.14L274.925 117.139L274.932 108.619L272.666 110.012Z" fill="#691D05"/>
</g>
<g clip-path="url(#clip4)">
<rect width="132.732" height="132.732" transform="translate(214 36)" fill="#FFC7B6"/>
<path d="M243.035 36C244.135 36 245.19 36.437 245.968 37.2149C246.746 37.9928 247.183 39.0478 247.183 40.1479V44.2957H313.549V40.1479C313.549 39.0478 313.986 37.9928 314.764 37.2149C315.541 36.437 316.596 36 317.697 36C318.797 36 319.852 36.437 320.629 37.2149C321.407 37.9928 321.844 39.0478 321.844 40.1479V44.2957H330.14C334.54 44.2957 338.76 46.0437 341.872 49.1552C344.983 52.2667 346.732 56.4868 346.732 60.8872V152.14C346.732 156.54 344.983 160.76 341.872 163.872C338.76 166.983 334.54 168.732 330.14 168.732H230.591C226.191 168.732 221.971 166.983 218.86 163.872C215.748 160.76 214 156.54 214 152.14V60.8872C214 56.4868 215.748 52.2667 218.86 49.1552C221.971 46.0437 226.191 44.2957 230.591 44.2957H238.887V40.1479C238.887 39.0478 239.324 37.9928 240.102 37.2149C240.88 36.437 241.935 36 243.035 36ZM223.468 60.5867L222.296 152.14C222.296 154.34 223.17 156.45 224.725 158.006C226.281 159.562 228.391 160.436 230.591 160.436H330.14C332.34 160.436 334.45 159.562 336.006 158.006C337.562 156.45 338.436 154.34 338.436 152.14L336.044 59.1869L223.468 60.5867Z" fill="#A52800"/>
<g clip-path="url(#clip5)">
<path d="M265.973 103.884L264.373 106.791L252.931 127.554L249.577 124.195L248.419 126.118L238.14 143.222L236.549 145.874L291.359 145.913L290.313 143.469L285.066 131.201L284.048 128.823L280.422 132.443L267.47 106.846L265.975 103.884L265.973 103.884ZM265.839 111.386L271.158 121.895L269.801 123.057L265.809 119.632L261.814 123.051L260.185 121.65L265.839 111.386V111.386ZM265.807 124.245L269.799 127.67L272.783 125.114L278.382 136.182L279.47 138.343L282.857 134.961L286.04 142.406L242.738 142.374C245.246 138.197 247.758 134.021 250.268 129.846L253.749 133.331L254.875 131.289C256.07 129.121 257.266 126.955 258.459 124.787L261.81 127.662L265.807 124.245V124.245Z" fill="#6D220A"/>
</g>
<path d="M298.646 105.967L297.143 108.698L286.395 128.202L283.244 125.047L282.157 126.853L272.501 142.92L271.007 145.41L322.492 145.447L321.509 143.151L316.58 131.627L315.624 129.393L312.218 132.794L300.052 108.75L298.647 105.967L298.646 105.967ZM298.521 113.014L303.516 122.886L302.242 123.977L298.492 120.761L294.739 123.972L293.209 122.656L298.521 113.014ZM298.49 125.094L302.24 128.311L305.043 125.91L310.302 136.306L311.324 138.336L314.506 135.159L317.496 142.152L276.82 142.123C279.176 138.2 281.536 134.276 283.894 130.354L287.163 133.629L288.221 131.71C289.343 129.674 290.467 127.639 291.588 125.602L294.736 128.304L298.49 125.094Z" fill="#6D220A"/>
<path d="M241.325 85.3972L244.91 85.3998L244.715 84.8146L243.144 79.9535C243.023 80.3834 242.482 82.008 241.52 84.8273L241.325 85.3972ZM246.137 89.0907L245.254 86.435L240.979 86.4319L240.077 89.0863L238.772 89.0853L242.304 78.9779L243.984 78.9791L247.442 89.0916L246.137 89.0907ZM253.799 81.4912L254.984 81.4921L254.979 89.0971L253.794 89.0962L253.794 87.7762C253.394 88.7159 252.598 89.1854 251.408 89.1845C250.658 89.184 250.064 88.9635 249.624 88.5232C249.194 88.0729 248.98 87.4727 248.98 86.7227L248.984 81.4877L250.169 81.4886L250.165 86.4236C250.165 86.9736 250.305 87.3937 250.585 87.6839C250.864 87.9741 251.244 88.1194 251.724 88.1197C252.354 88.1202 252.854 87.9005 253.225 87.4608C253.605 87.0211 253.795 86.4262 253.796 85.6762L253.799 81.4912ZM260.02 87.8557C260.57 87.8561 261.055 87.6465 261.475 87.2268C261.906 86.7971 262.121 86.1623 262.122 85.3223C262.123 84.3523 261.918 83.6321 261.508 83.1618C261.099 82.6915 260.624 82.4562 260.084 82.4558C259.434 82.4553 258.919 82.7149 258.538 83.2347C258.158 83.7444 257.967 84.4143 257.967 85.2443C257.966 86.0943 258.176 86.7444 258.595 87.1947C259.015 87.635 259.49 87.8554 260.02 87.8557ZM262.125 81.4973L263.31 81.4981L263.305 88.4881C263.304 89.6481 262.983 90.5179 262.343 91.0974C261.702 91.687 260.877 91.9814 259.867 91.9806C258.947 91.98 258.162 91.8244 257.512 91.5139L257.513 90.3289C258.153 90.6994 258.903 90.8849 259.763 90.8856C260.493 90.8861 261.068 90.6915 261.488 90.3018C261.909 89.9121 262.119 89.3023 262.12 88.4723L262.12 87.6173C261.62 88.4769 260.874 88.9064 259.884 88.9056C259.014 88.905 258.269 88.5845 257.65 87.944C257.04 87.3036 256.736 86.4134 256.737 85.2734C256.738 84.1434 257.023 83.2136 257.594 82.484C258.164 81.7544 258.91 81.3899 259.83 81.3906C260.87 81.3914 261.634 81.8469 262.124 82.7573L262.125 81.4973ZM268.244 81.9817L268.245 80.7067L270.571 79.2984L271.681 79.2992L271.674 89.1092L270.504 89.1083L270.51 80.5883L268.244 81.9817ZM278.581 83.5942L278.581 83.5192C278.582 82.5692 278.413 81.7941 278.073 81.1938C277.743 80.5836 277.209 80.2782 276.469 80.2777C275.899 80.2772 275.444 80.4669 275.103 80.8467C274.763 81.2264 274.593 81.7463 274.592 82.4063C274.592 83.0963 274.771 83.6264 275.131 83.9967C275.491 84.367 275.981 84.5523 276.601 84.5528C277.421 84.5534 278.081 84.2338 278.581 83.5942ZM273.777 88.9457L273.778 87.7757C274.298 88.0061 274.848 88.1215 275.428 88.1219C277.238 88.1232 278.269 86.989 278.52 84.7192C278.02 85.3088 277.28 85.6033 276.3 85.6025C275.5 85.602 274.81 85.3115 274.23 84.731C273.651 84.1406 273.361 83.3654 273.362 82.4054C273.363 81.4754 273.638 80.7056 274.189 80.096C274.739 79.4864 275.489 79.182 276.439 79.1826C277.539 79.1834 278.364 79.594 278.914 80.4144C279.473 81.2348 279.752 82.27 279.751 83.52C279.75 85.3 279.389 86.6998 278.668 87.7193C277.958 88.7287 276.892 89.233 275.472 89.2319C274.892 89.2315 274.327 89.1361 273.777 88.9457ZM280.255 90.9604L281.652 87.6014L283.227 87.6026L281.29 90.9612L280.255 90.9604ZM289.613 88.0872L294.173 88.0905L294.172 89.1255L287.977 89.121L287.978 88.116C291.08 85.7783 292.631 83.8294 292.632 82.2694C292.633 81.6494 292.453 81.1743 292.093 80.844C291.733 80.5037 291.248 80.3334 290.638 80.3329C289.848 80.3324 289.068 80.6268 288.298 81.2162L288.299 80.0312C289.009 79.4818 289.824 79.2073 290.744 79.208C291.624 79.2087 292.364 79.4642 292.964 79.9746C293.563 80.4851 293.863 81.2103 293.862 82.1503C293.861 83.9203 292.444 85.8992 289.613 88.0872ZM295.468 84.1914C295.469 82.6514 295.78 81.4367 296.4 80.5471C297.031 79.6476 297.856 79.1982 298.876 79.1989C299.936 79.1997 300.776 79.6503 301.395 80.5507C302.025 81.4412 302.339 82.6564 302.338 84.1964C302.337 85.7264 302.036 86.9512 301.435 87.8708C300.834 88.7903 299.979 89.2497 298.869 89.2489C297.839 89.2482 297.014 88.7876 296.395 87.8671C295.776 86.9467 295.467 85.7214 295.468 84.1914ZM297.33 81.3428C296.899 82.0125 296.684 82.9623 296.683 84.1923C296.682 85.4223 296.891 86.3875 297.311 87.0878C297.73 87.7781 298.25 88.1235 298.87 88.1239C299.56 88.1244 300.105 87.7848 300.506 87.1051C300.916 86.4254 301.122 85.4555 301.123 84.1955C301.124 82.9455 300.909 81.9904 300.48 81.3301C300.06 80.6598 299.526 80.3244 298.876 80.3239C298.276 80.3235 297.76 80.6631 297.33 81.3428ZM305.184 88.0985L309.744 88.1018L309.743 89.1368L303.548 89.1323L303.549 88.1273C306.651 85.7895 308.202 83.8407 308.203 82.2807C308.204 81.6607 308.024 81.1855 307.664 80.8553C307.305 80.515 306.82 80.3447 306.21 80.3442C305.42 80.3437 304.64 80.6381 303.869 81.2275L303.87 80.0425C304.58 79.493 305.396 79.2186 306.316 79.2193C307.196 79.2199 307.935 79.4755 308.535 79.9859C309.135 80.4963 309.434 81.2216 309.433 82.1616C309.432 83.9316 308.016 85.9105 305.184 88.0985ZM310.666 82.0125L310.667 80.7375L312.993 79.3291L314.103 79.3299L314.095 89.1399L312.925 89.1391L312.932 80.6191L310.666 82.0125Z" fill="#691D05"/>
</g>
</g>
<defs>
<filter id="filter0_d" x="0" y="0" width="400.296" height="243.975" filterUnits="userSpaceOnUse" color-interpolation-filters="sRGB">
<feFlood flood-opacity="0" result="BackgroundImageFix"/>
<feColorMatrix in="SourceAlpha" type="matrix" values="0 0 0 0 0 0 0 0 0 0 0 0 0 0 0 0 0 0 127 0" result="hardAlpha"/>
<feOffset dy="4"/>
<feGaussianBlur stdDeviation="2"/>
<feComposite in2="hardAlpha" operator="out"/>
<feColorMatrix type="matrix" values="0 0 0 0 0 0 0 0 0 0 0 0 0 0 0 0 0 0 0.25 0"/>
<feBlend mode="normal" in2="BackgroundImageFix" result="effect1_dropShadow"/>
<feBlend mode="normal" in="SourceGraphic" in2="effect1_dropShadow" result="shape"/>
</filter>
<filter id="filter1_d" x="25.4641" y="25.6641" width="106.921" height="30.624" filterUnits="userSpaceOnUse" color-interpolation-filters="sRGB">
<feFlood flood-opacity="0" result="BackgroundImageFix"/>
<feColorMatrix in="SourceAlpha" type="matrix" values="0 0 0 0 0 0 0 0 0 0 0 0 0 0 0 0 0 0 127 0" result="hardAlpha"/>
<feOffset dy="4"/>
<feGaussianBlur stdDeviation="2"/>
<feComposite in2="hardAlpha" operator="out"/>
<feColorMatrix type="matrix" values="0 0 0 0 0 0 0 0 0 0 0 0 0 0 0 0 0 0 0.25 0"/>
<feBlend mode="normal" in2="BackgroundImageFix" result="effect1_dropShadow"/>
<feBlend mode="normal" in="SourceGraphic" in2="effect1_dropShadow" result="shape"/>
</filter>
<filter id="filter2_i" x="4" y="0" width="392.296" height="239.975" filterUnits="userSpaceOnUse" color-interpolation-filters="sRGB">
<feFlood flood-opacity="0" result="BackgroundImageFix"/>
<feBlend mode="normal" in="SourceGraphic" in2="BackgroundImageFix" result="shape"/>
<feColorMatrix in="SourceAlpha" type="matrix" values="0 0 0 0 0 0 0 0 0 0 0 0 0 0 0 0 0 0 127 0" result="hardAlpha"/>
<feOffset dy="4"/>
<feGaussianBlur stdDeviation="2"/>
<feComposite in2="hardAlpha" operator="arithmetic" k2="-1" k3="1"/>
<feColorMatrix type="matrix" values="0 0 0 0 0 0 0 0 0 0 0 0 0 0 0 0 0 0 0.25 0"/>
<feBlend mode="normal" in2="shape" result="effect1_innerShadow"/>
</filter>
<clipPath id="clip0">
<rect width="132.732" height="132.732" fill="white" transform="translate(231 80)"/>
</clipPath>
<clipPath id="clip1">
<rect width="56.0643" height="56.0643" fill="white" transform="translate(245.502 141.755) rotate(0.0415367)"/>
</clipPath>
<clipPath id="clip2">
<rect width="132.732" height="132.732" fill="white" transform="translate(176 64)"/>
</clipPath>
<clipPath id="clip3">
<rect width="56.0643" height="56.0643" fill="white" transform="translate(190.502 125.755) rotate(0.0415367)"/>
</clipPath>
<clipPath id="clip4">
<rect width="132.732" height="132.732" fill="white" transform="translate(214 36)"/>
</clipPath>
<clipPath id="clip5">
<rect width="56.0643" height="56.0643" fill="white" transform="translate(228.502 97.7549) rotate(0.0415367)"/>
</clipPath>
</defs>
</svg>
