<svg width="401" height="244" viewBox="0 0 401 244" fill="none" xmlns="http://www.w3.org/2000/svg">
<g filter="url(#filter0_d)">
<rect x="4.29639" width="391" height="235" rx="20" fill="#9F1D5B"/>
<g filter="url(#filter1_d)">
<path d="M283.648 25.696V48H280.736V37.888H269.376V48H266.464V25.696H269.376V35.488H280.736V25.696H283.648ZM296.268 48.288C294.626 48.288 293.132 47.9147 291.788 47.168C290.466 46.4213 289.42 45.3653 288.652 44C287.906 42.6133 287.532 41.0133 287.532 39.2C287.532 37.408 287.916 35.8293 288.684 34.464C289.474 33.0773 290.54 32.0213 291.884 31.296C293.228 30.5493 294.732 30.176 296.396 30.176C298.06 30.176 299.564 30.5493 300.908 31.296C302.252 32.0213 303.308 33.0667 304.076 34.432C304.866 35.7973 305.26 37.3867 305.26 39.2C305.26 41.0133 304.855 42.6133 304.044 44C303.255 45.3653 302.178 46.4213 300.812 47.168C299.447 47.9147 297.932 48.288 296.268 48.288ZM296.268 45.728C297.314 45.728 298.295 45.4827 299.212 44.992C300.13 44.5013 300.866 43.7653 301.42 42.784C301.996 41.8027 302.284 40.608 302.284 39.2C302.284 37.792 302.007 36.5973 301.452 35.616C300.898 34.6347 300.172 33.9093 299.276 33.44C298.38 32.9493 297.41 32.704 296.364 32.704C295.298 32.704 294.316 32.9493 293.42 33.44C292.546 33.9093 291.842 34.6347 291.308 35.616C290.775 36.5973 290.508 37.792 290.508 39.2C290.508 40.6293 290.764 41.8347 291.276 42.816C291.81 43.7973 292.514 44.5333 293.388 45.024C294.263 45.4933 295.223 45.728 296.268 45.728ZM312.641 32.864V43.2C312.641 44.0533 312.822 44.6613 313.185 45.024C313.548 45.3653 314.177 45.536 315.073 45.536H317.217V48H314.593C312.972 48 311.756 47.6267 310.945 46.88C310.134 46.1333 309.729 44.9067 309.729 43.2V32.864H307.457V30.464H309.729V26.048H312.641V30.464H317.217V32.864H312.641ZM336.745 38.56C336.745 39.1147 336.713 39.7013 336.649 40.32H322.633C322.74 42.048 323.327 43.4027 324.393 44.384C325.481 45.344 326.793 45.824 328.329 45.824C329.588 45.824 330.633 45.536 331.465 44.96C332.319 44.3627 332.916 43.5733 333.257 42.592H336.393C335.924 44.2773 334.985 45.6533 333.577 46.72C332.169 47.7653 330.42 48.288 328.329 48.288C326.665 48.288 325.172 47.9147 323.849 47.168C322.548 46.4213 321.524 45.3653 320.777 44C320.031 42.6133 319.657 41.0133 319.657 39.2C319.657 37.3867 320.02 35.7973 320.745 34.432C321.471 33.0667 322.484 32.0213 323.785 31.296C325.108 30.5493 326.623 30.176 328.329 30.176C329.993 30.176 331.465 30.5387 332.745 31.264C334.025 31.9893 335.007 32.992 335.689 34.272C336.393 35.5307 336.745 36.96 336.745 38.56ZM333.737 37.952C333.737 36.8427 333.492 35.8933 333.001 35.104C332.511 34.2933 331.839 33.6853 330.985 33.28C330.153 32.8533 329.225 32.64 328.201 32.64C326.729 32.64 325.471 33.1093 324.425 34.048C323.401 34.9867 322.815 36.288 322.665 37.952H333.737ZM343.501 24.32V48H340.589V24.32H343.501ZM354.672 48.288C353.328 48.288 352.123 48.064 351.056 47.616C349.989 47.1467 349.147 46.5067 348.528 45.696C347.909 44.864 347.568 43.9147 347.504 42.848H350.512C350.597 43.7227 351.003 44.4373 351.728 44.992C352.475 45.5467 353.445 45.824 354.64 45.824C355.749 45.824 356.624 45.5787 357.264 45.088C357.904 44.5973 358.224 43.9787 358.224 43.232C358.224 42.464 357.883 41.8987 357.2 41.536C356.517 41.152 355.461 40.7787 354.032 40.416C352.731 40.0747 351.664 39.7333 350.832 39.392C350.021 39.0293 349.317 38.5067 348.72 37.824C348.144 37.12 347.856 36.2027 347.856 35.072C347.856 34.176 348.123 33.3547 348.656 32.608C349.189 31.8613 349.947 31.2747 350.928 30.848C351.909 30.4 353.029 30.176 354.288 30.176C356.229 30.176 357.797 30.6667 358.992 31.648C360.187 32.6293 360.827 33.9733 360.912 35.68H358C357.936 34.7627 357.563 34.0267 356.88 33.472C356.219 32.9173 355.323 32.64 354.192 32.64C353.147 32.64 352.315 32.864 351.696 33.312C351.077 33.76 350.768 34.3467 350.768 35.072C350.768 35.648 350.949 36.128 351.312 36.512C351.696 36.8747 352.165 37.1733 352.72 37.408C353.296 37.6213 354.085 37.8667 355.088 38.144C356.347 38.4853 357.371 38.8267 358.16 39.168C358.949 39.488 359.621 39.9787 360.176 40.64C360.752 41.3013 361.051 42.1653 361.072 43.232C361.072 44.192 360.805 45.056 360.272 45.824C359.739 46.592 358.981 47.2 358 47.648C357.04 48.0747 355.931 48.288 354.672 48.288Z" fill="white"/>
</g>
<g filter="url(#filter2_i)">
<path d="M322.093 76C358.493 59.6 396.593 99.5 396.593 116.233V215.233C396.593 229.233 383.093 235.5 374.593 235C262.426 236.333 34.0928 236.266 22.5928 234.999C9.47815 233.555 5.09277 221.166 4.59277 215.999C3.92612 158.999 4.59277 39.5788 4.59277 23.499C4.59277 4.76575 18.5928 0 26.5928 0H70.0928C72.0928 0.5 137.593 -2.5 184.593 20.5C212.041 33.9321 207.593 44.5 242.593 65.5C252.37 71.3661 276.593 96.5 322.093 76Z" fill="#EEA4C8"/>
</g>
<path d="M292.321 203H192.321L193.642 196.547H197.321V101C197.321 99.4087 197.848 97.8826 198.785 96.7574C199.723 95.6321 200.995 95 202.321 95H272.321C273.647 95 274.919 95.6321 275.856 96.7574C276.794 97.8826 277.321 99.4087 277.321 101V133.377H284.208V163.943V196.547H292.321V203ZM266.094 196.547H277.321V141.528H244.585V170.057V196.547H257.321V155H266.094V196.547ZM268.925 133.377V103.491H237.321H203.83V146.962V196.547H237.321V133.377H268.925ZM217.321 143H227.321V155H217.321V143ZM217.321 167H227.321V179H217.321V167ZM217.321 119H227.321V131H217.321V119Z" fill="#A82554"/>
<path d="M118.921 195.116H114.755V135.491C114.754 133.403 114.139 131.402 113.046 129.925C111.953 128.449 110.472 127.619 108.927 127.616H81.4482V99.4912C81.4465 97.4034 80.8318 95.4017 79.7391 93.9254C78.6464 92.449 77.1648 91.6186 75.6195 91.6162H35.651C34.1057 91.6186 32.6241 92.449 31.5314 93.9254C30.4387 95.4017 29.824 97.4034 29.8222 99.4912V195.116H25.6614C24.9988 195.116 24.3635 195.472 23.895 196.105C23.4265 196.738 23.1633 197.596 23.1633 198.491C23.1633 199.386 23.4265 200.245 23.895 200.878C24.3635 201.511 24.9988 201.866 25.6614 201.866H118.921C119.584 201.866 120.219 201.511 120.688 200.878C121.156 200.245 121.419 199.386 121.419 198.491C121.419 197.596 121.156 196.738 120.688 196.105C120.219 195.472 119.584 195.116 118.921 195.116ZM108.927 134.366C109.147 134.367 109.359 134.485 109.515 134.696C109.671 134.907 109.759 135.193 109.759 135.491V195.116H81.4482V134.366H108.927ZM34.8183 99.4912C34.8185 99.1929 34.9063 98.907 35.0624 98.696C35.2186 98.4851 35.4302 98.3665 35.651 98.3662H75.6195C75.8403 98.3665 76.0519 98.4851 76.208 98.696C76.3642 98.907 76.452 99.1929 76.4522 99.4912V195.116H34.8183V99.4912ZM43.1451 117.491C43.1451 116.596 43.4083 115.738 43.8767 115.105C44.3452 114.472 44.9806 114.116 45.6431 114.116H58.966C59.6285 114.116 60.2639 114.472 60.7323 115.105C61.2008 115.738 61.464 116.596 61.464 117.491C61.464 118.386 61.2008 119.245 60.7323 119.878C60.2639 120.511 59.6285 120.866 58.966 120.866H45.6431C44.9806 120.866 44.3452 120.511 43.8767 119.878C43.4083 119.245 43.1451 118.386 43.1451 117.491ZM68.1254 153.491C68.1254 154.386 67.8622 155.245 67.3937 155.878C66.9253 156.511 66.2899 156.866 65.6274 156.866H52.3045C51.642 156.866 51.0066 156.511 50.5382 155.878C50.0697 155.245 49.8065 154.386 49.8065 153.491C49.8065 152.596 50.0697 151.738 50.5382 151.105C51.0066 150.472 51.642 150.116 52.3045 150.116H65.6274C66.2899 150.116 66.9253 150.472 67.3937 151.105C67.8622 151.738 68.1254 152.596 68.1254 153.491ZM61.464 175.991C61.464 176.886 61.2008 177.745 60.7323 178.378C60.2639 179.011 59.6285 179.366 58.966 179.366H45.6431C44.9806 179.366 44.3452 179.011 43.8767 178.378C43.4083 177.745 43.1451 176.886 43.1451 175.991C43.1451 175.096 43.4083 174.238 43.8767 173.605C44.3452 172.972 44.9806 172.616 45.6431 172.616H58.966C59.6285 172.616 60.2639 172.972 60.7323 173.605C61.2008 174.238 61.464 175.096 61.464 175.991ZM101.432 175.991C101.432 176.886 101.169 177.745 100.701 178.378C100.232 179.011 99.597 179.366 98.9345 179.366H92.273C91.6105 179.366 90.9751 179.011 90.5067 178.378C90.0382 177.745 89.775 176.886 89.775 175.991C89.775 175.096 90.0382 174.238 90.5067 173.605C90.9751 172.972 91.6105 172.616 92.273 172.616H98.9345C99.597 172.616 100.232 172.972 100.701 173.605C101.169 174.238 101.432 175.096 101.432 175.991ZM89.775 153.491C89.775 152.596 90.0382 151.738 90.5067 151.105C90.9751 150.472 91.6105 150.116 92.273 150.116H98.9345C99.597 150.116 100.232 150.472 100.701 151.105C101.169 151.738 101.432 152.596 101.432 153.491C101.432 154.386 101.169 155.245 100.701 155.878C100.232 156.511 99.597 156.866 98.9345 156.866H92.273C91.6105 156.866 90.9751 156.511 90.5067 155.878C90.0382 155.245 89.775 154.386 89.775 153.491Z" fill="#691B76"/>
<path d="M112.882 113.882H201.701" stroke="#8454A9" stroke-width="4" stroke-linecap="round" stroke-linejoin="round"/>
<path d="M188.378 113.882H126.205C123.752 113.882 121.764 115.87 121.764 118.323V198.26C121.764 200.712 123.752 202.701 126.205 202.701H188.378C190.831 202.701 192.819 200.712 192.819 198.26V118.323C192.819 115.87 190.831 113.882 188.378 113.882Z" stroke="#8454A9" stroke-width="4" stroke-linejoin="round"/>
<path d="M148.409 176.055H166.173V202.7H148.409V176.055Z" stroke="#8454A9" stroke-width="4" stroke-linecap="round" stroke-linejoin="round"/>
<path d="M137.307 131.646H141.748" stroke="#8454A9" stroke-width="4" stroke-linecap="round"/>
<path d="M137.307 144.969H141.748" stroke="#8454A9" stroke-width="4" stroke-linecap="round"/>
<path d="M155.071 131.646H159.512" stroke="#8454A9" stroke-width="4" stroke-linecap="round"/>
<path d="M155.071 144.969H159.512" stroke="#8454A9" stroke-width="4" stroke-linecap="round"/>
<path d="M172.834 131.646H177.275" stroke="#8454A9" stroke-width="4" stroke-linecap="round"/>
<path d="M172.834 144.969H177.275" stroke="#8454A9" stroke-width="4" stroke-linecap="round"/>
<path d="M112.882 202.701H201.701" stroke="#8454A9" stroke-width="4" stroke-linecap="round" stroke-linejoin="round"/>
<path d="M166.173 176.055H170.614C171.84 176.055 172.857 175.052 172.621 173.848C171.396 167.542 164.998 162.732 157.291 162.732C149.586 162.732 143.187 167.54 141.961 173.848C141.726 175.052 142.743 176.055 143.968 176.055H148.409" stroke="#8454A9" stroke-width="4" stroke-linecap="round" stroke-linejoin="round"/>
</g>
<g clip-path="url(#clip0)">
<path d="M29.0637 43.373C28.6294 43.5957 28.1367 43.2053 28.2244 42.707L29.1582 37.3857L25.1948 33.6102C24.8247 33.257 25.0171 32.6112 25.5132 32.5415L31.0234 31.7585L33.4804 26.8906C33.7021 26.4518 34.3017 26.4518 34.5233 26.8906L36.9803 31.7585L42.4906 32.5415C42.9867 32.6112 43.1791 33.257 42.8078 33.6102L38.8456 37.3857L39.7793 42.707C39.8671 43.2053 39.3743 43.5957 38.9401 43.373L34.0002 40.835L29.0626 43.373H29.0637Z" fill="#B78119"/>
</g>
<path d="M55.3326 43.9316C54.8695 44.1692 54.3439 43.7528 54.4375 43.2212L55.4334 37.5454L51.206 33.5184C50.8112 33.1416 51.0164 32.4528 51.5456 32.3784L57.423 31.5432L60.0437 26.351C60.2801 25.883 60.9197 25.883 61.156 26.351L63.7768 31.5432L69.6542 32.3784C70.1833 32.4528 70.3885 33.1416 69.9926 33.5184L65.7663 37.5454L66.7623 43.2212C66.8559 43.7528 66.3303 44.1692 65.8671 43.9316L60.5981 41.2245L55.3314 43.9316H55.3326Z" fill="#B78119"/>
<path d="M82.2914 42.9354C81.8539 43.1598 81.3576 42.7665 81.446 42.2645L82.3866 36.904L78.394 33.1007C78.0211 32.7448 78.2149 32.0943 78.7147 32.024L84.2656 31.2353L86.7407 26.3315C86.964 25.8895 87.568 25.8895 87.7913 26.3315L90.2664 31.2353L95.8173 32.024C96.3171 32.0943 96.5109 32.7448 96.1369 33.1007L92.1454 36.904L93.086 42.2645C93.1744 42.7665 92.6781 43.1598 92.2406 42.9354L87.2643 40.3787L82.2903 42.9354H82.2914Z" fill="#B78119"/>
<path d="M108.424 42.9354C107.987 43.1598 107.49 42.7665 107.579 42.2645L108.519 36.904L104.527 33.1007C104.154 32.7448 104.348 32.0943 104.848 32.024L110.398 31.2353L112.874 26.3315C113.097 25.8895 113.701 25.8895 113.924 26.3315L116.399 31.2353L121.95 32.024C122.45 32.0943 122.644 32.7448 122.27 33.1007L118.278 36.904L119.219 42.2645C119.307 42.7665 118.811 43.1598 118.373 42.9354L113.397 40.3787L108.423 42.9354H108.424Z" fill="#B78119"/>
<g clip-path="url(#clip1)">
<path d="M136.488 31.7589L138.945 26.891C138.993 26.7931 139.066 26.7104 139.158 26.6523C139.25 26.5942 139.356 26.5631 139.465 26.5625C139.671 26.5625 139.877 26.6716 139.988 26.891L142.445 31.7589L147.956 32.5419C148.093 32.5635 148.219 32.6318 148.311 32.7353C148.404 32.8388 148.459 32.9711 148.465 33.11C148.473 33.2025 148.46 33.2955 148.427 33.3822C148.394 33.4689 148.341 33.547 148.274 33.6106L144.311 37.3861L145.244 42.7074C145.332 43.2057 144.839 43.5961 144.405 43.3734L139.465 40.8354L134.528 43.3734C134.476 43.4002 134.421 43.4191 134.363 43.4296C133.979 43.4971 133.612 43.1439 133.688 42.7074L134.622 37.3861L130.66 33.6106C130.598 33.5523 130.549 33.482 130.516 33.404C130.483 33.326 130.466 33.242 130.466 33.1572C130.466 33.0374 130.499 32.9198 130.562 32.8175C130.606 32.7433 130.667 32.6801 130.739 32.6324C130.811 32.5846 130.893 32.5537 130.978 32.5419L136.488 31.7589V31.7589ZM139.465 39.5304C139.556 39.53 139.646 39.5516 139.726 39.5934L143.873 41.7241L143.092 37.2725C143.074 37.1701 143.081 37.0648 143.113 36.9657C143.144 36.8667 143.2 36.7769 143.274 36.7044L146.545 33.5881L141.986 32.9401C141.892 32.9259 141.802 32.8889 141.725 32.8325C141.648 32.7761 141.586 32.7018 141.544 32.6161L139.466 28.5009L139.465 28.5043V39.5293V39.5304Z" fill="#B78119"/>
</g>
<defs>
<filter id="filter0_d" x="0.296387" y="0" width="400.296" height="243.975" filterUnits="userSpaceOnUse" color-interpolation-filters="sRGB">
<feFlood flood-opacity="0" result="BackgroundImageFix"/>
<feColorMatrix in="SourceAlpha" type="matrix" values="0 0 0 0 0 0 0 0 0 0 0 0 0 0 0 0 0 0 127 0" result="hardAlpha"/>
<feOffset dy="4"/>
<feGaussianBlur stdDeviation="2"/>
<feComposite in2="hardAlpha" operator="out"/>
<feColorMatrix type="matrix" values="0 0 0 0 0 0 0 0 0 0 0 0 0 0 0 0 0 0 0.25 0"/>
<feBlend mode="normal" in2="BackgroundImageFix" result="effect1_dropShadow"/>
<feBlend mode="normal" in="SourceGraphic" in2="effect1_dropShadow" result="shape"/>
</filter>
<filter id="filter1_d" x="262.464" y="24.3203" width="102.608" height="31.968" filterUnits="userSpaceOnUse" color-interpolation-filters="sRGB">
<feFlood flood-opacity="0" result="BackgroundImageFix"/>
<feColorMatrix in="SourceAlpha" type="matrix" values="0 0 0 0 0 0 0 0 0 0 0 0 0 0 0 0 0 0 127 0" result="hardAlpha"/>
<feOffset dy="4"/>
<feGaussianBlur stdDeviation="2"/>
<feComposite in2="hardAlpha" operator="out"/>
<feColorMatrix type="matrix" values="0 0 0 0 0 0 0 0 0 0 0 0 0 0 0 0 0 0 0.25 0"/>
<feBlend mode="normal" in2="BackgroundImageFix" result="effect1_dropShadow"/>
<feBlend mode="normal" in="SourceGraphic" in2="effect1_dropShadow" result="shape"/>
</filter>
<filter id="filter2_i" x="4.29639" y="0" width="392.296" height="239.975" filterUnits="userSpaceOnUse" color-interpolation-filters="sRGB">
<feFlood flood-opacity="0" result="BackgroundImageFix"/>
<feBlend mode="normal" in="SourceGraphic" in2="BackgroundImageFix" result="shape"/>
<feColorMatrix in="SourceAlpha" type="matrix" values="0 0 0 0 0 0 0 0 0 0 0 0 0 0 0 0 0 0 127 0" result="hardAlpha"/>
<feOffset dy="4"/>
<feGaussianBlur stdDeviation="2"/>
<feComposite in2="hardAlpha" operator="arithmetic" k2="-1" k3="1"/>
<feColorMatrix type="matrix" values="0 0 0 0 0 0 0 0 0 0 0 0 0 0 0 0 0 0 0.25 0"/>
<feBlend mode="normal" in2="shape" result="effect1_innerShadow"/>
</filter>
<clipPath id="clip0">
<rect width="18" height="18" fill="white" transform="translate(25 26)"/>
</clipPath>
<clipPath id="clip1">
<rect width="18" height="18" fill="white" transform="translate(130.465 26)"/>
</clipPath>
</defs>
</svg>
