<svg width="402" height="245" viewBox="0 0 402 245" fill="none" xmlns="http://www.w3.org/2000/svg">
<g filter="url(#filter0_d)">
<rect x="5.48193" y="1.47559" width="391" height="235" rx="20" fill="#1A9872"/>
</g>
<g filter="url(#filter1_d)">
<path d="M254.376 191.696V214H251.464V191.696H254.376ZM262.891 198.864V209.2C262.891 210.053 263.072 210.661 263.435 211.024C263.798 211.365 264.427 211.536 265.323 211.536H267.467V214H264.843C263.222 214 262.006 213.627 261.195 212.88C260.384 212.133 259.979 210.907 259.979 209.2V198.864H257.707V196.464H259.979V192.048H262.891V196.464H267.467V198.864H262.891ZM272.499 193.616C271.945 193.616 271.475 193.424 271.091 193.04C270.707 192.656 270.515 192.187 270.515 191.632C270.515 191.077 270.707 190.608 271.091 190.224C271.475 189.84 271.945 189.648 272.499 189.648C273.033 189.648 273.481 189.84 273.843 190.224C274.227 190.608 274.419 191.077 274.419 191.632C274.419 192.187 274.227 192.656 273.843 193.04C273.481 193.424 273.033 193.616 272.499 193.616ZM273.907 196.464V214H270.995V196.464H273.907ZM287.414 196.144C289.548 196.144 291.276 196.795 292.598 198.096C293.921 199.376 294.582 201.232 294.582 203.664V214H291.702V204.08C291.702 202.331 291.265 200.997 290.39 200.08C289.516 199.141 288.321 198.672 286.806 198.672C285.27 198.672 284.044 199.152 283.126 200.112C282.23 201.072 281.782 202.469 281.782 204.304V214H278.87V196.464H281.782V198.96C282.358 198.064 283.137 197.371 284.118 196.88C285.121 196.389 286.22 196.144 287.414 196.144ZM315.339 204.56C315.339 205.115 315.307 205.701 315.243 206.32H301.227C301.334 208.048 301.92 209.403 302.987 210.384C304.075 211.344 305.387 211.824 306.923 211.824C308.182 211.824 309.227 211.536 310.059 210.96C310.912 210.363 311.51 209.573 311.851 208.592H314.987C314.518 210.277 313.579 211.653 312.171 212.72C310.763 213.765 309.014 214.288 306.923 214.288C305.259 214.288 303.766 213.915 302.443 213.168C301.142 212.421 300.118 211.365 299.371 210C298.624 208.613 298.251 207.013 298.251 205.2C298.251 203.387 298.614 201.797 299.339 200.432C300.064 199.067 301.078 198.021 302.379 197.296C303.702 196.549 305.216 196.176 306.923 196.176C308.587 196.176 310.059 196.539 311.339 197.264C312.619 197.989 313.6 198.992 314.283 200.272C314.987 201.531 315.339 202.96 315.339 204.56ZM312.331 203.952C312.331 202.843 312.086 201.893 311.595 201.104C311.104 200.293 310.432 199.685 309.579 199.28C308.747 198.853 307.819 198.64 306.795 198.64C305.323 198.64 304.064 199.109 303.019 200.048C301.995 200.987 301.408 202.288 301.259 203.952H312.331ZM322.095 199.312C322.607 198.309 323.332 197.531 324.271 196.976C325.231 196.421 326.393 196.144 327.759 196.144V199.152H326.991C323.727 199.152 322.095 200.923 322.095 204.464V214H319.183V196.464H322.095V199.312ZM330.032 205.168C330.032 203.376 330.395 201.808 331.12 200.464C331.846 199.099 332.838 198.043 334.096 197.296C335.376 196.549 336.795 196.176 338.352 196.176C339.888 196.176 341.222 196.507 342.352 197.168C343.483 197.829 344.326 198.661 344.88 199.664V196.464H347.824V214H344.88V210.736C344.304 211.76 343.44 212.613 342.288 213.296C341.158 213.957 339.835 214.288 338.32 214.288C336.763 214.288 335.355 213.904 334.096 213.136C332.838 212.368 331.846 211.291 331.12 209.904C330.395 208.517 330.032 206.939 330.032 205.168ZM344.88 205.2C344.88 203.877 344.614 202.725 344.08 201.744C343.547 200.763 342.822 200.016 341.904 199.504C341.008 198.971 340.016 198.704 338.928 198.704C337.84 198.704 336.848 198.96 335.952 199.472C335.056 199.984 334.342 200.731 333.808 201.712C333.275 202.693 333.008 203.845 333.008 205.168C333.008 206.512 333.275 207.685 333.808 208.688C334.342 209.669 335.056 210.427 335.952 210.96C336.848 211.472 337.84 211.728 338.928 211.728C340.016 211.728 341.008 211.472 341.904 210.96C342.822 210.427 343.547 209.669 344.08 208.688C344.614 207.685 344.88 206.523 344.88 205.2ZM355.657 199.312C356.169 198.309 356.895 197.531 357.833 196.976C358.793 196.421 359.956 196.144 361.321 196.144V199.152H360.553C357.289 199.152 355.657 200.923 355.657 204.464V214H352.745V196.464H355.657V199.312ZM379.787 196.464L369.227 222.256H366.219L369.675 213.808L362.603 196.464H365.835L371.339 210.672L376.779 196.464H379.787Z" fill="white"/>
</g>
<g filter="url(#filter2_d)">
<path d="M322.778 141.242C359.178 157.642 387.278 134.408 396.778 120.742V21.7415C396.778 7.74176 383.278 1.47482 374.778 1.97492C262.612 0.641588 34.2783 0.708755 22.7783 1.97537C9.6637 3.41982 5.27832 15.8089 4.77832 20.9756C4.11166 77.9756 6 197.396 6 213.476C6 232.209 24.3477 230.833 32 228.5C67.9999 217.524 57.5 200 74.5 184C92.5 167.059 103.5 190.5 134 180C181 167 190.778 186.975 225.778 165.975C235.555 160.109 277.278 120.742 322.778 141.242Z" fill="#9DFBDF"/>
<path d="M322.778 141.242C359.178 157.642 387.278 134.408 396.778 120.742V21.7415C396.778 7.74176 383.278 1.47482 374.778 1.97492C262.612 0.641588 34.2783 0.708755 22.7783 1.97537C9.6637 3.41982 5.27832 15.8089 4.77832 20.9756C4.11166 77.9756 6 197.396 6 213.476C6 232.209 24.3477 230.833 32 228.5C67.9999 217.524 57.5 200 74.5 184C92.5 167.059 103.5 190.5 134 180C181 167 190.778 186.975 225.778 165.975C235.555 160.109 277.278 120.742 322.778 141.242Z" stroke="#9DFBDF"/>
</g>
<rect x="16.4819" y="80.001" width="369" height="7" rx="3.5" fill="#1A9872"/>
<rect x="25.4819" y="66.001" width="2" height="30" fill="#1A9872"/>
<rect x="85.4819" y="66.001" width="2" height="30" fill="#1A9872"/>
<rect x="143.482" y="66.001" width="2" height="30" fill="#1A9872"/>
<rect x="201.482" y="66.001" width="2" height="30" fill="#1A9872"/>
<rect x="259.482" y="66.001" width="2" height="30" fill="#1A9872"/>
<rect x="317.482" y="66.001" width="2" height="30" fill="#1A9872"/>
<rect x="375.482" y="65.001" width="2" height="30" fill="#1A9872"/>
<path d="M60.928 107.248V106.016C61.5467 105.621 62.2613 105.424 63.072 105.424C64.1067 105.424 64.9067 105.691 65.472 106.224C66.048 106.747 66.336 107.397 66.336 108.176C66.336 108.741 66.192 109.248 65.904 109.696C65.6267 110.144 65.2107 110.48 64.656 110.704C65.264 110.843 65.744 111.125 66.096 111.552C66.4587 111.968 66.64 112.491 66.64 113.12C66.64 113.973 66.3413 114.683 65.744 115.248C65.1467 115.813 64.304 116.096 63.216 116.096C62.2133 116.096 61.344 115.92 60.608 115.568V114.304C61.3973 114.72 62.256 114.928 63.184 114.928C63.8667 114.928 64.3947 114.752 64.768 114.4C65.152 114.048 65.344 113.589 65.344 113.024C65.344 112.459 65.1307 112.027 64.704 111.728C64.288 111.419 63.6853 111.264 62.896 111.264H62.224V110.16H62.896C63.4933 110.16 63.9947 109.995 64.4 109.664C64.816 109.323 65.024 108.869 65.024 108.304C65.024 107.739 64.848 107.312 64.496 107.024C64.144 106.736 63.6587 106.592 63.04 106.592C62.304 106.592 61.6 106.811 60.928 107.248ZM68.3971 109.92C68.3971 109.664 68.4825 109.445 68.6531 109.264C68.8345 109.083 69.0585 108.992 69.3251 108.992C69.5918 108.992 69.8158 109.083 69.9971 109.264C70.1785 109.445 70.2691 109.664 70.2691 109.92C70.2691 110.187 70.1785 110.411 69.9971 110.592C69.8158 110.763 69.5918 110.848 69.3251 110.848C69.0585 110.848 68.8345 110.763 68.6531 110.592C68.4825 110.411 68.3971 110.187 68.3971 109.92ZM68.6531 115.76C68.4825 115.579 68.3971 115.355 68.3971 115.088C68.3971 114.821 68.4825 114.597 68.6531 114.416C68.8345 114.235 69.0585 114.144 69.3251 114.144C69.5918 114.144 69.8158 114.235 69.9971 114.416C70.1785 114.597 70.2691 114.821 70.2691 115.088C70.2691 115.355 70.1785 115.579 69.9971 115.76C69.8158 115.931 69.5918 116.016 69.3251 116.016C69.0585 116.016 68.8345 115.931 68.6531 115.76ZM71.9068 110.736C71.9068 109.093 72.2374 107.797 72.8988 106.848C73.5708 105.888 74.4508 105.408 75.5388 105.408C76.6694 105.408 77.5654 105.888 78.2268 106.848C78.8988 107.797 79.2348 109.093 79.2348 110.736C79.2348 112.368 78.9148 113.675 78.2748 114.656C77.6348 115.637 76.7228 116.128 75.5388 116.128C74.4401 116.128 73.5601 115.637 72.8988 114.656C72.2374 113.675 71.9068 112.368 71.9068 110.736ZM73.8908 107.696C73.4321 108.411 73.2028 109.424 73.2028 110.736C73.2028 112.048 73.4268 113.077 73.8748 113.824C74.3228 114.56 74.8774 114.928 75.5388 114.928C76.2748 114.928 76.8561 114.565 77.2828 113.84C77.7201 113.115 77.9388 112.08 77.9388 110.736C77.9388 109.403 77.7094 108.384 77.2508 107.68C76.8028 106.965 76.2321 106.608 75.5388 106.608C74.8988 106.608 74.3494 106.971 73.8908 107.696ZM80.6099 110.736C80.6099 109.093 80.9405 107.797 81.6019 106.848C82.2739 105.888 83.1539 105.408 84.2419 105.408C85.3725 105.408 86.2685 105.888 86.9299 106.848C87.6019 107.797 87.9379 109.093 87.9379 110.736C87.9379 112.368 87.6179 113.675 86.9779 114.656C86.3379 115.637 85.4259 116.128 84.2419 116.128C83.1432 116.128 82.2632 115.637 81.6019 114.656C80.9405 113.675 80.6099 112.368 80.6099 110.736ZM82.5939 107.696C82.1352 108.411 81.9059 109.424 81.9059 110.736C81.9059 112.048 82.1299 113.077 82.5779 113.824C83.0259 114.56 83.5805 114.928 84.2419 114.928C84.9779 114.928 85.5592 114.565 85.9859 113.84C86.4232 113.115 86.6419 112.08 86.6419 110.736C86.6419 109.403 86.4125 108.384 85.9539 107.68C85.5059 106.965 84.9352 106.608 84.2419 106.608C83.6019 106.608 83.0525 106.971 82.5939 107.696ZM93.361 114.976C94.0437 114.976 94.6037 114.709 95.041 114.176C95.4783 113.632 95.697 112.864 95.697 111.872C95.697 110.987 95.4837 110.272 95.057 109.728C94.6303 109.184 94.0917 108.912 93.441 108.912C92.7903 108.912 92.225 109.152 91.745 109.632C91.2757 110.101 91.041 110.875 91.041 111.952C91.041 112.987 91.281 113.749 91.761 114.24C92.241 114.731 92.7743 114.976 93.361 114.976ZM91.041 107.888V109.12C91.6063 108.213 92.4437 107.76 93.553 107.76C94.6303 107.76 95.473 108.155 96.081 108.944C96.6997 109.723 97.009 110.699 97.009 111.872C97.009 113.12 96.6837 114.144 96.033 114.944C95.393 115.733 94.5557 116.128 93.521 116.128C92.4543 116.128 91.6277 115.675 91.041 114.768V119.152H89.793V107.888H91.041ZM100.119 107.888V109.2C100.567 108.251 101.33 107.776 102.407 107.776C103.655 107.776 104.444 108.304 104.775 109.36C105.01 108.848 105.335 108.459 105.751 108.192C106.178 107.915 106.652 107.776 107.175 107.776C108.018 107.776 108.652 108.016 109.079 108.496C109.506 108.976 109.719 109.621 109.719 110.432V116H108.455V110.752C108.455 109.525 107.938 108.912 106.903 108.912C106.391 108.912 105.932 109.147 105.527 109.616C105.122 110.075 104.919 110.725 104.919 111.568V116H103.655V110.752C103.655 109.525 103.138 108.912 102.103 108.912C101.591 108.912 101.132 109.147 100.727 109.616C100.322 110.075 100.119 110.725 100.119 111.568V116H98.8711V107.888H100.119Z" fill="#1A9872"/>
<path d="M183.026 115.009C183.634 115.009 184.114 114.785 184.466 114.337C184.829 113.889 185.01 113.302 185.01 112.577C185.01 111.916 184.829 111.388 184.466 110.993C184.114 110.598 183.65 110.401 183.074 110.401C182.114 110.401 181.282 110.79 180.578 111.569C180.621 112.7 180.861 113.558 181.298 114.145C181.746 114.721 182.322 115.009 183.026 115.009ZM185.586 105.473V106.705C185.127 106.502 184.642 106.401 184.13 106.401C183.127 106.401 182.327 106.78 181.73 107.537C181.133 108.284 180.765 109.228 180.626 110.369C181.33 109.633 182.199 109.265 183.234 109.265C184.194 109.265 184.946 109.569 185.49 110.177C186.045 110.785 186.322 111.59 186.322 112.593C186.322 113.66 186.018 114.524 185.41 115.185C184.813 115.846 184.018 116.177 183.026 116.177C181.831 116.177 180.914 115.724 180.274 114.817C179.634 113.91 179.314 112.726 179.314 111.265C179.314 109.526 179.741 108.086 180.594 106.945C181.447 105.804 182.621 105.233 184.114 105.233C184.594 105.233 185.085 105.313 185.586 105.473ZM187.848 109.921C187.848 109.665 187.933 109.446 188.104 109.265C188.285 109.084 188.509 108.993 188.776 108.993C189.042 108.993 189.266 109.084 189.448 109.265C189.629 109.446 189.72 109.665 189.72 109.921C189.72 110.188 189.629 110.412 189.448 110.593C189.266 110.764 189.042 110.849 188.776 110.849C188.509 110.849 188.285 110.764 188.104 110.593C187.933 110.412 187.848 110.188 187.848 109.921ZM188.104 115.761C187.933 115.58 187.848 115.356 187.848 115.089C187.848 114.822 187.933 114.598 188.104 114.417C188.285 114.236 188.509 114.145 188.776 114.145C189.042 114.145 189.266 114.236 189.448 114.417C189.629 114.598 189.72 114.822 189.72 115.089C189.72 115.356 189.629 115.58 189.448 115.761C189.266 115.932 189.042 116.017 188.776 116.017C188.509 116.017 188.285 115.932 188.104 115.761ZM191.357 110.737C191.357 109.094 191.688 107.798 192.349 106.849C193.021 105.889 193.901 105.409 194.989 105.409C196.12 105.409 197.016 105.889 197.677 106.849C198.349 107.798 198.685 109.094 198.685 110.737C198.685 112.369 198.365 113.676 197.725 114.657C197.085 115.638 196.173 116.129 194.989 116.129C193.891 116.129 193.011 115.638 192.349 114.657C191.688 113.676 191.357 112.369 191.357 110.737ZM193.341 107.697C192.883 108.412 192.653 109.425 192.653 110.737C192.653 112.049 192.877 113.078 193.325 113.825C193.773 114.561 194.328 114.929 194.989 114.929C195.725 114.929 196.307 114.566 196.733 113.841C197.171 113.116 197.389 112.081 197.389 110.737C197.389 109.404 197.16 108.385 196.701 107.681C196.253 106.966 195.683 106.609 194.989 106.609C194.349 106.609 193.8 106.972 193.341 107.697ZM200.061 110.737C200.061 109.094 200.391 107.798 201.053 106.849C201.725 105.889 202.605 105.409 203.693 105.409C204.823 105.409 205.719 105.889 206.381 106.849C207.053 107.798 207.389 109.094 207.389 110.737C207.389 112.369 207.069 113.676 206.429 114.657C205.789 115.638 204.877 116.129 203.693 116.129C202.594 116.129 201.714 115.638 201.053 114.657C200.391 113.676 200.061 112.369 200.061 110.737ZM202.045 107.697C201.586 108.412 201.357 109.425 201.357 110.737C201.357 112.049 201.581 113.078 202.029 113.825C202.477 114.561 203.031 114.929 203.693 114.929C204.429 114.929 205.01 114.566 205.437 113.841C205.874 113.116 206.093 112.081 206.093 110.737C206.093 109.404 205.863 108.385 205.405 107.681C204.957 106.966 204.386 106.609 203.693 106.609C203.053 106.609 202.503 106.972 202.045 107.697ZM212.812 114.977C213.494 114.977 214.054 114.71 214.492 114.177C214.929 113.633 215.148 112.865 215.148 111.873C215.148 110.988 214.934 110.273 214.508 109.729C214.081 109.185 213.542 108.913 212.892 108.913C212.241 108.913 211.676 109.153 211.196 109.633C210.726 110.102 210.492 110.876 210.492 111.953C210.492 112.988 210.732 113.75 211.212 114.241C211.692 114.732 212.225 114.977 212.812 114.977ZM210.492 107.889V109.121C211.057 108.214 211.894 107.761 213.004 107.761C214.081 107.761 214.924 108.156 215.532 108.945C216.15 109.724 216.46 110.7 216.46 111.873C216.46 113.121 216.134 114.145 215.484 114.945C214.844 115.734 214.006 116.129 212.972 116.129C211.905 116.129 211.078 115.676 210.492 114.769V119.153H209.244V107.889H210.492ZM219.57 107.889V109.201C220.018 108.252 220.78 107.777 221.858 107.777C223.106 107.777 223.895 108.305 224.226 109.361C224.46 108.849 224.786 108.46 225.202 108.193C225.628 107.916 226.103 107.777 226.626 107.777C227.468 107.777 228.103 108.017 228.53 108.497C228.956 108.977 229.17 109.622 229.17 110.433V116.001H227.906V110.753C227.906 109.526 227.388 108.913 226.354 108.913C225.842 108.913 225.383 109.148 224.978 109.617C224.572 110.076 224.37 110.726 224.37 111.569V116.001H223.106V110.753C223.106 109.526 222.588 108.913 221.554 108.913C221.042 108.913 220.583 109.148 220.178 109.617C219.772 110.076 219.57 110.726 219.57 111.569V116.001H218.322V107.889H219.57Z" fill="#1A9872"/>
<path d="M299.144 110.112V110.032C299.144 109.019 298.963 108.192 298.6 107.552C298.248 106.901 297.677 106.576 296.888 106.576C296.28 106.576 295.795 106.779 295.432 107.184C295.069 107.589 294.888 108.144 294.888 108.848C294.888 109.584 295.08 110.149 295.464 110.544C295.848 110.939 296.371 111.136 297.032 111.136C297.907 111.136 298.611 110.795 299.144 110.112ZM294.024 115.824V114.576C294.579 114.821 295.165 114.944 295.784 114.944C297.715 114.944 298.813 113.733 299.08 111.312C298.547 111.941 297.757 112.256 296.712 112.256C295.859 112.256 295.123 111.947 294.504 111.328C293.885 110.699 293.576 109.872 293.576 108.848C293.576 107.856 293.869 107.035 294.456 106.384C295.043 105.733 295.843 105.408 296.856 105.408C298.029 105.408 298.909 105.845 299.496 106.72C300.093 107.595 300.392 108.699 300.392 110.032C300.392 111.931 300.008 113.424 299.24 114.512C298.483 115.589 297.347 116.128 295.832 116.128C295.213 116.128 294.611 116.027 294.024 115.824ZM302.007 109.92C302.007 109.664 302.092 109.445 302.263 109.264C302.444 109.083 302.668 108.992 302.935 108.992C303.201 108.992 303.425 109.083 303.607 109.264C303.788 109.445 303.879 109.664 303.879 109.92C303.879 110.187 303.788 110.411 303.607 110.592C303.425 110.763 303.201 110.848 302.935 110.848C302.668 110.848 302.444 110.763 302.263 110.592C302.092 110.411 302.007 110.187 302.007 109.92ZM302.263 115.76C302.092 115.579 302.007 115.355 302.007 115.088C302.007 114.821 302.092 114.597 302.263 114.416C302.444 114.235 302.668 114.144 302.935 114.144C303.201 114.144 303.425 114.235 303.607 114.416C303.788 114.597 303.879 114.821 303.879 115.088C303.879 115.355 303.788 115.579 303.607 115.76C303.425 115.931 303.201 116.016 302.935 116.016C302.668 116.016 302.444 115.931 302.263 115.76ZM305.516 110.736C305.516 109.093 305.847 107.797 306.508 106.848C307.18 105.888 308.06 105.408 309.148 105.408C310.279 105.408 311.175 105.888 311.836 106.848C312.508 107.797 312.844 109.093 312.844 110.736C312.844 112.368 312.524 113.675 311.884 114.656C311.244 115.637 310.332 116.128 309.148 116.128C308.049 116.128 307.169 115.637 306.508 114.656C305.847 113.675 305.516 112.368 305.516 110.736ZM307.5 107.696C307.041 108.411 306.812 109.424 306.812 110.736C306.812 112.048 307.036 113.077 307.484 113.824C307.932 114.56 308.487 114.928 309.148 114.928C309.884 114.928 310.465 114.565 310.892 113.84C311.329 113.115 311.548 112.08 311.548 110.736C311.548 109.403 311.319 108.384 310.86 107.68C310.412 106.965 309.841 106.608 309.148 106.608C308.508 106.608 307.959 106.971 307.5 107.696ZM314.219 110.736C314.219 109.093 314.55 107.797 315.211 106.848C315.883 105.888 316.763 105.408 317.851 105.408C318.982 105.408 319.878 105.888 320.539 106.848C321.211 107.797 321.547 109.093 321.547 110.736C321.547 112.368 321.227 113.675 320.587 114.656C319.947 115.637 319.035 116.128 317.851 116.128C316.753 116.128 315.873 115.637 315.211 114.656C314.55 113.675 314.219 112.368 314.219 110.736ZM316.203 107.696C315.745 108.411 315.515 109.424 315.515 110.736C315.515 112.048 315.739 113.077 316.187 113.824C316.635 114.56 317.19 114.928 317.851 114.928C318.587 114.928 319.169 114.565 319.595 113.84C320.033 113.115 320.251 112.08 320.251 110.736C320.251 109.403 320.022 108.384 319.563 107.68C319.115 106.965 318.545 106.608 317.851 106.608C317.211 106.608 316.662 106.971 316.203 107.696ZM326.97 114.976C327.653 114.976 328.213 114.709 328.65 114.176C329.088 113.632 329.306 112.864 329.306 111.872C329.306 110.987 329.093 110.272 328.666 109.728C328.24 109.184 327.701 108.912 327.05 108.912C326.4 108.912 325.834 109.152 325.354 109.632C324.885 110.101 324.65 110.875 324.65 111.952C324.65 112.987 324.89 113.749 325.37 114.24C325.85 114.731 326.384 114.976 326.97 114.976ZM324.65 107.888V109.12C325.216 108.213 326.053 107.76 327.162 107.76C328.24 107.76 329.082 108.155 329.69 108.944C330.309 109.723 330.618 110.699 330.618 111.872C330.618 113.12 330.293 114.144 329.642 114.944C329.002 115.733 328.165 116.128 327.13 116.128C326.064 116.128 325.237 115.675 324.65 114.768V119.152H323.402V107.888H324.65ZM333.729 107.888V109.2C334.177 108.251 334.939 107.776 336.016 107.776C337.265 107.776 338.054 108.304 338.385 109.36C338.619 108.848 338.945 108.459 339.361 108.192C339.787 107.915 340.262 107.776 340.785 107.776C341.627 107.776 342.262 108.016 342.689 108.496C343.115 108.976 343.329 109.621 343.329 110.432V116H342.065V110.752C342.065 109.525 341.547 108.912 340.513 108.912C340.001 108.912 339.542 109.147 339.137 109.616C338.731 110.075 338.529 110.725 338.529 111.568V116H337.265V110.752C337.265 109.525 336.747 108.912 335.713 108.912C335.201 108.912 334.742 109.147 334.337 109.616C333.931 110.075 333.729 110.725 333.729 111.568V116H332.481V107.888H333.729Z" fill="#1A9872"/>
<path d="M215.375 38.1406H210.594L209.455 34.9484C209.376 34.73 209.232 34.5412 209.042 34.4078C208.852 34.2744 208.625 34.2029 208.393 34.2031H197.607C197.132 34.2031 196.707 34.502 196.549 34.9484L195.406 38.1406H190.625C189.071 38.1406 187.812 39.3992 187.812 40.9531V56.9844C187.812 58.5383 189.071 59.7969 190.625 59.7969H215.375C216.929 59.7969 218.188 58.5383 218.188 56.9844V40.9531C218.188 39.3992 216.929 38.1406 215.375 38.1406ZM203 54.1719C199.892 54.1719 197.375 51.6547 197.375 48.5469C197.375 45.4391 199.892 42.9219 203 42.9219C206.108 42.9219 208.625 45.4391 208.625 48.5469C208.625 51.6547 206.108 54.1719 203 54.1719ZM199.625 48.5469C199.625 49.442 199.981 50.3004 200.614 50.9334C201.246 51.5663 202.105 51.9219 203 51.9219C203.895 51.9219 204.754 51.5663 205.386 50.9334C206.019 50.3004 206.375 49.442 206.375 48.5469C206.375 47.6518 206.019 46.7933 205.386 46.1604C204.754 45.5275 203.895 45.1719 203 45.1719C202.105 45.1719 201.246 45.5275 200.614 46.1604C199.981 46.7933 199.625 47.6518 199.625 48.5469Z" fill="#156A8E"/>
<g clip-path="url(#clip0)">
<path d="M311.875 36.375C311.35 36.375 311 36.9 311 37.25V41.625H309.25V37.25C309.25 36.725 308.9 36.375 308.375 36.375C307.85 36.375 307.5 36.9 307.5 37.25V41.625H305.75V37.25C305.75 36.725 305.4 36.375 304.875 36.375C304.35 36.375 304 36.9 304 37.25V43.025C304 44.6 305.225 45.825 306.625 46V58.25C306.625 59.3 307.325 60 308.375 60C309.425 60 310.125 59.3 310.125 58.25V46C311.525 45.825 312.75 44.6 312.75 43.025V37.25C312.75 36.9 312.4 36.375 311.875 36.375ZM315.375 37.25V47.75H317.125V58.25C317.125 59.3 317.825 60 318.875 60C319.925 60 320.625 59.3 320.625 58.25V32C317.65 32 315.375 34.275 315.375 37.25ZM327.625 35.5C325.175 35.5 323.25 38.125 323.25 41.275C323.075 43.375 324.125 45.3 325.875 46.525V58.25C325.875 59.3 326.575 60 327.625 60C328.675 60 329.375 59.3 329.375 58.25V46.525C331.125 45.3 332.175 43.375 332 41.275C332 38.125 330.075 35.5 327.625 35.5Z" fill="#156A8E"/>
</g>
<path fill-rule="evenodd" clip-rule="evenodd" d="M85.4292 22.2998C87.2134 22.2998 88.6575 23.7866 88.6575 25.5708C88.6575 27.3545 87.2134 28.8413 85.4292 28.8413C83.645 28.8413 82.1583 27.3545 82.1583 25.5708C82.1583 23.7866 83.6455 22.2998 85.4292 22.2998V22.2998ZM85.6418 29.1387C86.8694 29.1004 87.8184 29.8643 88.3178 30.6682L91.716 36.3178L97.663 38.824C99.3618 39.5456 98.5549 41.7971 96.6435 41.2876C96.5751 41.2411 96.5042 41.1985 96.431 41.16L92.438 49.9952C92.438 49.9952 93.7122 52.9264 95.3266 56.2401C96.8983 59.5955 93.0751 61.04 91.6733 57.9389L90.2719 54.7956L88.2329 59.2558L87.3833 58.8735L89.7619 53.6912L85.7689 44.9836C85.5991 45.0258 85.4292 44.9836 85.2167 44.9836C85.2167 44.9836 80.5866 55.5176 79.3119 58.279C78.0804 61.04 74.4275 59.3834 75.659 56.6642C76.891 53.9459 82.7532 40.7354 82.7532 40.7354L78.3958 40.8066C77.7358 40.8124 77.5779 40.7072 77.5361 40.2126C77.4688 38.9058 77.3535 35.8311 77.6558 34.406C78.0456 32.569 78.2784 30.5472 79.5671 29.9457C80.8563 29.3442 83.0928 31.0078 83.0928 31.0078C83.4325 29.9034 84.4947 29.1387 85.6418 29.1387V29.1387ZM88.2752 35.7651V40.8634L91.9285 48.8494L95.5814 40.8207L90.2719 38.6119C90.0167 38.4843 89.8046 38.3145 89.6343 38.0597L88.2752 35.7651Z" fill="#156A8E"/>
<defs>
<filter id="filter0_d" x="1.48193" y="1.47559" width="399" height="243" filterUnits="userSpaceOnUse" color-interpolation-filters="sRGB">
<feFlood flood-opacity="0" result="BackgroundImageFix"/>
<feColorMatrix in="SourceAlpha" type="matrix" values="0 0 0 0 0 0 0 0 0 0 0 0 0 0 0 0 0 0 127 0" result="hardAlpha"/>
<feOffset dy="4"/>
<feGaussianBlur stdDeviation="2"/>
<feComposite in2="hardAlpha" operator="out"/>
<feColorMatrix type="matrix" values="0 0 0 0 0 0 0 0 0 0 0 0 0 0 0 0 0 0 0.25 0"/>
<feBlend mode="normal" in2="BackgroundImageFix" result="effect1_dropShadow"/>
<feBlend mode="normal" in="SourceGraphic" in2="effect1_dropShadow" result="shape"/>
</filter>
<filter id="filter1_d" x="247.464" y="189.648" width="136.323" height="40.608" filterUnits="userSpaceOnUse" color-interpolation-filters="sRGB">
<feFlood flood-opacity="0" result="BackgroundImageFix"/>
<feColorMatrix in="SourceAlpha" type="matrix" values="0 0 0 0 0 0 0 0 0 0 0 0 0 0 0 0 0 0 127 0" result="hardAlpha"/>
<feOffset dy="4"/>
<feGaussianBlur stdDeviation="2"/>
<feComposite in2="hardAlpha" operator="out"/>
<feColorMatrix type="matrix" values="0 0 0 0 0 0 0 0 0 0 0 0 0 0 0 0 0 0 0.25 0"/>
<feBlend mode="normal" in2="BackgroundImageFix" result="effect1_dropShadow"/>
<feBlend mode="normal" in="SourceGraphic" in2="effect1_dropShadow" result="shape"/>
</filter>
<filter id="filter2_d" x="0.135742" y="0.5" width="401.142" height="237.824" filterUnits="userSpaceOnUse" color-interpolation-filters="sRGB">
<feFlood flood-opacity="0" result="BackgroundImageFix"/>
<feColorMatrix in="SourceAlpha" type="matrix" values="0 0 0 0 0 0 0 0 0 0 0 0 0 0 0 0 0 0 127 0" result="hardAlpha"/>
<feOffset dy="4"/>
<feGaussianBlur stdDeviation="2"/>
<feComposite in2="hardAlpha" operator="out"/>
<feColorMatrix type="matrix" values="0 0 0 0 0 0 0 0 0 0 0 0 0 0 0 0 0 0 0.25 0"/>
<feBlend mode="normal" in2="BackgroundImageFix" result="effect1_dropShadow"/>
<feBlend mode="normal" in="SourceGraphic" in2="effect1_dropShadow" result="shape"/>
</filter>
<clipPath id="clip0">
<rect width="35" height="35" fill="white" transform="translate(297 25)"/>
</clipPath>
</defs>
</svg>
