<svg width="1440" height="900" viewBox="0 0 1440 900" fill="none" xmlns="http://www.w3.org/2000/svg">
<g clip-path="url(#clip0)">
<rect width="1440" height="900" fill="white"/>
<g filter="url(#filter0_i)">
<path d="M1371.55 124.096C1487.27 53.38 1474.52 81.5962 1517.52 124.096L1503.05 124.096L1494.02 99.0959L1486.52 310.596V907.096H857.554C810.554 958.596 754.954 950.296 794.554 907.096C660.054 907.096 768.129 901.701 750.227 846.596C694.022 673.596 905 606.5 940 563C1040.34 438.29 928.5 411.5 928.5 288.5C937 195.5 1006 144.5 1006 144.5C1006 144.5 1052.29 98.1862 1157.5 112.5C1222.95 121.404 1290.55 173.596 1371.55 124.096Z" fill="url(#paint0_angular)"/>
</g>
<g filter="url(#filter1_d)">
<rect x="895" y="696.273" width="398" height="692" rx="20" transform="rotate(-25 895 696.273)" fill="url(#paint1_linear)"/>
<g clip-path="url(#clip1)">
<path d="M1282.95 652.303L1276.33 663.065L1259.94 664.879L1274.47 652.397C1274.62 652.278 1274.79 652.199 1274.98 652.167L1281.8 650.665C1282.01 650.615 1282.23 650.629 1282.43 650.706C1282.63 650.783 1282.81 650.918 1282.93 651.094C1283.05 651.271 1283.12 651.48 1283.13 651.696C1283.13 651.911 1283.07 652.122 1282.95 652.303Z" fill="#45BEA7"/>
<path d="M1231.51 684.449L1239.41 673.373C1240.08 672.441 1240.93 671.662 1241.92 671.09C1242.91 670.518 1244.02 670.165 1245.16 670.057L1294.52 664.608L1301.37 657.802C1301.77 657.416 1302.27 657.165 1302.82 657.083C1303.37 657.001 1303.93 657.092 1304.42 657.345C1304.91 657.598 1305.31 657.999 1305.56 658.491C1305.81 658.983 1305.9 659.542 1305.82 660.089L1303.89 671.923C1303.86 672.12 1303.78 672.305 1303.66 672.462C1303.53 672.618 1303.37 672.74 1303.19 672.817C1300.51 673.857 1289.56 676.659 1276.47 679.809L1291.08 699.371C1291.2 699.54 1291.28 699.741 1291.3 699.951C1291.32 700.162 1291.29 700.374 1291.2 700.565C1291.11 700.756 1290.97 700.918 1290.79 701.035C1290.61 701.152 1290.41 701.219 1290.2 701.228L1283.34 701.533C1282.96 701.548 1282.59 701.43 1282.29 701.2L1259.71 683.818C1250.31 686.036 1241.29 688.107 1234.93 689.556C1234.28 689.716 1233.59 689.671 1232.97 689.428C1232.34 689.186 1231.81 688.757 1231.43 688.199C1231.06 687.642 1230.87 686.983 1230.88 686.312C1230.89 685.641 1231.11 684.991 1231.51 684.449Z" fill="#45BEA7"/>
</g>
<g filter="url(#filter2_d)">
<circle cx="1085.19" cy="741.418" r="7.5" transform="rotate(-56.065 1085.19 741.418)" fill="#36869D"/>
</g>
<g filter="url(#filter3_d)">
<circle cx="1085.01" cy="764.677" r="7.5" transform="rotate(-56.065 1085.01 764.677)" fill="#36869D"/>
</g>
<circle cx="1090.46" cy="712.482" r="7.5" transform="rotate(-56.065 1090.46 712.482)" fill="#36869D"/>
<g filter="url(#filter4_d)">
<circle cx="1085.78" cy="785.277" r="7.5" transform="rotate(-56.065 1085.78 785.277)" fill="#36869D"/>
</g>
<circle cx="1214.99" cy="641.172" r="7.5" transform="rotate(-56.065 1214.99 641.172)" fill="#36869D"/>
<circle cx="1187.08" cy="631.015" r="7.5" transform="rotate(-56.065 1187.08 631.015)" fill="#36869D"/>
<circle cx="1160.2" cy="632.517" r="7.5" transform="rotate(-56.065 1160.2 632.517)" fill="#36869D"/>
<circle cx="1132.58" cy="644.289" r="7.5" transform="rotate(-56.065 1132.58 644.289)" fill="#36869D"/>
<circle cx="1110.59" cy="663.373" r="7.5" transform="rotate(-56.065 1110.59 663.373)" fill="#36869D"/>
<circle cx="1098.32" cy="686.749" r="7.5" transform="rotate(-56.065 1098.32 686.749)" fill="#36869D"/>
<rect x="1050.52" y="1029.79" width="398" height="8" transform="rotate(-25 1050.52 1029.79)" fill="#36869D"/>
<g filter="url(#filter5_d)">
<path fill-rule="evenodd" clip-rule="evenodd" d="M1031.08 988.104L1186.62 915.574C1189.7 907.813 1188.52 903.066 1183.07 901.331L1077.32 806.534C1074.08 805.48 1070.87 805.693 1067.7 807.173C1064.52 808.653 1062.37 810.939 1061.24 814.031L1064.65 840.133L991.247 781.024C988.008 779.97 984.837 780.166 981.735 781.613C978.632 783.059 976.444 785.362 975.169 788.521L973.7 865.044L1031.08 988.104ZM992.486 874.811L994.307 808.573L1072.54 870.304C1069.64 871.825 1066.48 872.317 1063.06 871.778C1059.63 871.239 1056.34 870.08 1053.19 868.3C1050.04 866.52 1046.95 864.672 1043.91 862.755C1040.87 860.839 1037.78 859.46 1034.64 858.616C1031.5 857.773 1028.66 857.943 1026.12 859.127C1023.16 860.508 1020.83 862.408 1019.12 864.827C1017.42 867.246 1016.27 869.575 1015.68 871.815C1015.1 874.054 1013.98 876.454 1012.34 879.013C1010.71 881.573 1008.44 883.613 1005.54 885.135C1003.63 886.196 1002.07 886.797 1000.85 886.94C999.624 887.082 998.592 886.709 997.748 885.82C996.904 884.931 996.251 884.082 995.787 883.272C995.324 882.463 994.772 881.096 994.133 879.172C993.493 877.248 992.944 875.794 992.486 874.811Z" fill="url(#paint2_linear)" shape-rendering="crispEdges"/>
</g>
</g>
<g filter="url(#filter6_d)">
<rect x="1114" y="382.202" width="398" height="692" rx="20" transform="rotate(-25 1114 382.202)" fill="url(#paint3_linear)"/>
<rect x="1161" y="405.321" width="138" height="15.0472" rx="7.52362" transform="rotate(-25 1161 405.321)" fill="#36869D"/>
<rect x="1179.77" y="447.527" width="106" height="8" rx="4" transform="rotate(-25 1179.77 447.527)" fill="#36869D"/>
<rect x="1173" y="435.5" width="84" height="8" rx="4" transform="rotate(-25 1173 435.5)" fill="#36869D"/>
<rect x="1184" y="459.149" width="95" height="8" rx="4" transform="rotate(-25 1184 459.149)" fill="#36869D"/>
</g>
<g clip-path="url(#clip2)">
<g filter="url(#filter7_d)">
<path d="M1413.05 400.42L1394.76 393.762L1368.08 467.054C1366.26 472.043 1368.87 477.626 1373.9 479.529C1378.89 481.344 1384.47 478.741 1386.37 473.712L1413.05 400.42ZM1352.32 367.886L1336.07 361.974C1324.69 357.83 1319.47 343.908 1326.25 333.845C1338.3 315.686 1356.11 302.106 1376.81 295.284C1397.51 288.462 1419.91 288.795 1440.4 296.229C1400.83 300.875 1366.89 327.851 1352.32 367.886ZM1440.78 296.369C1483.8 312.098 1508.98 354.942 1504.13 398.516C1502.76 410.622 1489.95 417.98 1478.52 413.749L1462.28 407.836C1476.76 367.842 1468.11 325.363 1440.78 296.369ZM1440.52 296.275L1440.65 296.322C1456.21 321.033 1458.43 361.097 1443.9 401.22L1370.61 374.544C1385.18 334.508 1412.72 305.204 1440.52 296.275Z" fill="url(#paint4_linear)" shape-rendering="crispEdges"/>
</g>
</g>
<g filter="url(#filter8_d)">
<rect x="989" y="531.657" width="398" height="692" rx="20" transform="rotate(-24.2802 989 531.657)" fill="url(#paint5_linear)"/>
<g clip-path="url(#clip3)">
<path d="M1057.84 552.469L1070.35 550.672L1078.53 536.352L1061.3 544.726C1061.13 544.813 1060.99 544.94 1060.89 545.097L1056.79 550.764C1056.67 550.937 1056.59 551.144 1056.58 551.359C1056.57 551.574 1056.63 551.788 1056.74 551.971C1056.85 552.155 1057.02 552.3 1057.21 552.389C1057.41 552.478 1057.63 552.506 1057.84 552.469Z" fill="#45BEA7"/>
<path d="M1107.78 518.036L1094.48 520.888C1093.36 521.127 1092.3 521.603 1091.38 522.286C1090.46 522.968 1089.7 523.84 1089.15 524.843L1064.54 567.976L1055.57 571.559C1055.06 571.769 1054.62 572.134 1054.33 572.604C1054.04 573.073 1053.9 573.622 1053.94 574.174C1053.97 574.725 1054.18 575.252 1054.53 575.678C1054.89 576.105 1055.36 576.41 1055.9 576.551L1067.53 579.481C1067.72 579.532 1067.92 579.531 1068.11 579.481C1068.3 579.431 1068.48 579.332 1068.62 579.195C1070.64 577.149 1077.57 568.213 1085.66 557.452L1097.81 578.63C1097.91 578.813 1098.06 578.965 1098.25 579.068C1098.43 579.171 1098.64 579.222 1098.85 579.214C1099.06 579.207 1099.27 579.143 1099.45 579.027C1099.62 578.912 1099.77 578.751 1099.86 578.56L1102.86 572.388C1103.03 572.048 1103.07 571.661 1102.97 571.296L1096 543.664C1101.77 535.919 1107.25 528.466 1111.11 523.205C1111.51 522.671 1111.75 522.024 1111.77 521.354C1111.8 520.684 1111.62 520.021 1111.25 519.457C1110.89 518.893 1110.36 518.454 1109.74 518.2C1109.12 517.946 1108.44 517.889 1107.78 518.036Z" fill="#45BEA7"/>
</g>
<g filter="url(#filter9_d)">
<circle cx="1150.78" cy="517.261" r="7.5" transform="rotate(-24.2802 1150.78 517.261)" fill="#C4DAEF"/>
<circle cx="1176.3" cy="505.747" r="7.5" transform="rotate(-24.2802 1176.3 505.747)" fill="#C4DAEF"/>
<circle cx="1201.83" cy="494.234" r="7.5" transform="rotate(-24.2802 1201.83 494.234)" fill="#C4DAEF"/>
<circle cx="1227.35" cy="482.72" r="7.5" transform="rotate(-24.2802 1227.35 482.72)" fill="#C4DAEF"/>
<circle cx="1252.87" cy="471.207" r="7.5" transform="rotate(-24.2802 1252.87 471.207)" fill="#C4DAEF"/>
<circle cx="1278.4" cy="459.693" r="7.5" transform="rotate(-24.2802 1278.4 459.693)" fill="#C4DAEF"/>
<circle cx="1303.92" cy="448.179" r="7.5" transform="rotate(-24.2802 1303.92 448.179)" fill="#C4DAEF"/>
<circle cx="1329.44" cy="436.666" r="7.5" transform="rotate(-24.2802 1329.44 436.666)" fill="#C4DAEF"/>
</g>
<rect x="1035.88" y="635.573" width="398" height="8" transform="rotate(-24.2802 1035.88 635.573)" fill="#36869D"/>
<g clip-path="url(#clip4)" filter="url(#filter10_d)">
<path d="M1244.47 898.818C1244.47 898.818 1230.4 834.516 1185.1 829.912C1185.1 829.912 1166.61 822.965 1180.98 817.331C1195.36 811.691 1182.28 816.816 1182.28 816.816C1182.28 816.816 1217.4 805.756 1250.61 843.222L1268.98 882.615L1269.16 896.737L1244.46 898.81" fill="#37A06B"/>
<path d="M1269.56 893.526C1269.56 893.526 1256.4 829.041 1295.97 806.5C1295.97 806.5 1310.06 792.668 1294.65 793.327C1279.22 793.988 1293.25 793.383 1293.25 793.383C1293.25 793.383 1256.66 797.47 1241.46 845.165L1240.58 888.637L1246.14 901.633L1269.56 893.525" fill="#37A06B"/>
<path d="M1249 925.106C1246.08 918.636 1251.18 910.021 1260.4 905.863L1263.62 904.408C1272.83 900.252 1282.67 902.129 1285.59 908.599L1286.38 914.02C1289.29 920.49 1285.57 928.479 1276.36 932.634L1273.13 934.09C1263.91 938.248 1255.47 935.748 1252.55 929.278L1249 925.106Z" fill="#BF694F"/>
<path d="M1277.85 930.968C1285.93 927.081 1289.16 919.925 1286.54 914.106L1285.82 909.113C1283.14 903.173 1274.1 901.445 1265.63 905.263L1262.96 906.471C1280.1 917.168 1280.5 925.707 1277.85 930.968Z" fill="#924A3A"/>
<path d="M1231.77 890.231C1228.65 883.306 1234.12 874.089 1243.98 869.64L1247.43 868.083C1257.3 863.63 1267.82 865.634 1270.95 872.559L1271.78 878.37C1274.9 885.295 1270.94 893.845 1261.07 898.298L1257.61 899.855C1247.75 904.304 1238.71 901.63 1235.58 894.699L1231.77 890.231Z" fill="#BF694F"/>
<path d="M1262.21 894.428C1270.65 890.377 1274.03 882.906 1271.29 876.828L1270.54 871.616C1267.74 865.406 1258.31 863.594 1249.45 867.589L1246.66 868.847C1264.57 880.02 1264.98 888.933 1262.21 894.42" fill="#924A3A"/>
<path d="M1241.09 907.432C1238.17 900.962 1243.28 892.353 1252.51 888.192L1255.73 886.735C1264.94 882.581 1274.78 884.453 1277.69 890.921L1278.47 896.344C1281.39 902.814 1277.67 910.8 1268.46 914.954L1265.23 916.411C1256.01 920.571 1247.57 918.071 1244.65 911.601L1241.09 907.432Z" fill="#BF694F"/>
<path d="M1269.61 914.456C1278.06 910.399 1281.43 902.934 1278.69 896.857L1277.94 891.644C1275.14 885.434 1265.71 883.652 1256.86 887.648L1254.07 888.903C1271.97 900.076 1272.39 908.989 1269.61 914.472" fill="#924A3A"/>
<path d="M1258.21 902.615L1262.75 900.568C1270 897.298 1274.8 892.348 1276.93 887.026C1275.88 885.499 1274.38 884.281 1272.59 883.406C1270.78 888.144 1266.52 892.571 1260.11 895.464L1256.14 897.255C1249.7 900.159 1243.58 900.416 1238.83 898.632C1238.29 900.474 1238.23 902.426 1238.66 904.297C1244.07 906.212 1250.96 905.884 1258.2 902.619" fill="#DC9382"/>
<path d="M1344.31 849.993C1333.22 835.655 1343.31 848.692 1343.31 848.692C1343.31 848.692 1319.05 820.431 1282.39 826.23L1282.38 826.216C1282.38 826.216 1282.13 826.251 1281.68 826.331L1281.61 826.344C1280.85 826.48 1280.09 826.633 1279.33 826.801C1277.55 827.16 1275.8 827.588 1274.06 828.084L1273.82 828.28C1264.88 831.072 1251.53 837.308 1246.89 850.197L1246.4 850.595L1245.8 850.426C1236.34 840.521 1221.62 840.222 1212.3 841.281L1212.01 841.198C1210.21 841.447 1208.43 841.767 1206.65 842.157C1205.91 842.305 1205.16 842.472 1204.43 842.658L1204.31 842.686L1203.62 842.862L1203.63 842.876C1167.75 852.397 1157 888.056 1157 888.056C1157 888.056 1160.96 872.059 1156.61 889.653C1152.25 907.254 1167.01 894.434 1167.01 894.434C1195.16 854.415 1244.47 885.528 1244.47 885.528L1251 872.352L1262.31 881.755C1262.31 881.755 1294.81 833.367 1336.74 858.563C1336.74 858.563 1355.43 864.312 1344.33 849.981" fill="#46B295"/>
<path d="M1168.74 887.088C1173.09 869.49 1169.14 885.491 1169.14 885.491C1169.14 885.491 1179.26 851.968 1212.57 841.251L1212.3 841.28L1212.01 841.197C1210.22 841.446 1208.43 841.765 1206.66 842.153C1205.91 842.303 1205.17 842.471 1204.43 842.657L1204.33 842.683L1203.63 842.86L1203.63 842.874C1167.76 852.395 1157.01 888.053 1157.01 888.053C1157.01 888.053 1160.96 872.056 1156.61 889.651C1152.25 907.252 1167.02 894.426 1167.02 894.426C1167.33 893.996 1167.65 893.611 1167.96 893.181C1167.87 891.764 1168.08 889.787 1168.74 887.088Z" fill="#4CA58C"/>
<path d="M1309.14 851.437C1317.62 850.833 1326.92 852.659 1336.74 858.566C1336.74 858.566 1350.14 862.685 1347.5 855.244C1333.28 847.208 1320.18 847.521 1309.14 851.437Z" fill="#4CA58C"/>
<path d="M1256.79 863.443L1254.35 873.146L1258.54 875.311C1258.54 875.311 1259.96 871.699 1262.88 866.607L1256.78 863.447" fill="#375427"/>
<path d="M1284.42 853.985L1284.44 853.968C1284.29 853.897 1284.17 853.854 1284.03 853.79C1282.38 853.044 1280.71 852.316 1278.97 851.653L1278.44 851.666C1250.37 842.289 1229.02 856.196 1219.9 863.977L1219.11 864.303C1217.88 865.525 1216.73 866.764 1215.62 868.012C1215.26 868.394 1215.04 868.632 1215.04 868.632L1215.06 868.647C1187.56 900.124 1194.3 941.108 1194.3 941.108C1194.41 941.633 1194.53 942.198 1194.66 942.799C1198.59 961.419 1205.14 940.582 1205.14 940.582C1209.47 901.146 1239.26 889.098 1254.85 885.482C1270.55 882.488 1302.68 881.432 1322.6 915.767C1322.6 915.767 1337.01 932.159 1333.07 913.55L1332.71 911.861C1332.72 911.858 1322.3 871.647 1284.41 853.992" fill="#44B67B"/>
<path d="M1204.57 940.69C1204.44 940.094 1204.32 939.529 1204.21 939.001C1204.21 939.001 1197.47 898.008 1224.98 866.537L1224.97 866.518C1224.97 866.518 1225.17 866.287 1225.53 865.908C1226.65 864.653 1227.82 863.403 1229.03 862.194L1229.81 861.846C1234.54 857.801 1242.58 852.118 1253.14 848.887C1237.66 850.737 1226.03 858.718 1219.9 863.94L1219.12 864.288C1217.89 865.505 1216.74 866.754 1215.62 868.004C1215.25 868.384 1215.06 868.616 1215.06 868.616L1215.07 868.638C1187.56 900.106 1194.3 941.092 1194.3 941.092C1194.41 941.623 1194.52 942.185 1194.65 942.788C1198.04 958.811 1203.37 945.609 1204.79 941.625C1204.7 941.321 1204.64 941.031 1204.57 940.696" fill="#37A06B"/>
<path d="M1332.5 913.641C1312.59 879.323 1280.46 880.375 1264.74 883.356C1263.09 883.738 1261.46 884.174 1259.84 884.664C1276.67 882.582 1304.6 884.728 1322.59 915.725C1322.59 915.725 1336.47 931.522 1333.25 914.449C1332.79 913.957 1332.5 913.63 1332.5 913.63" fill="#37A06B"/>
</g>
<g clip-path="url(#clip5)" filter="url(#filter11_d)">
<path d="M1282.16 817.001C1282.16 817.001 1260.56 736.011 1212.6 725.494C1212.6 725.494 1192.48 714.937 1206.94 709.502C1221.4 704.062 1208.25 709.005 1208.25 709.005C1208.25 709.005 1243.87 699.074 1282.67 748.927L1306.12 799.583L1307.81 817.059L1282.15 816.99" fill="#37A06B"/>
<path d="M1307.89 813.133C1307.89 813.133 1287.23 732.015 1326.3 708.365C1326.3 708.365 1339.6 692.768 1323.51 691.94C1307.42 691.113 1322.05 691.86 1322.05 691.86C1322.05 691.86 1284.14 693.014 1273.29 750.355L1277 804.001L1284.21 820.659L1307.9 813.132" fill="#37A06B"/>
<path d="M1321.7 910.973C1318.7 904.329 1322.25 896.257 1329.61 892.937L1332.2 891.772C1339.56 888.448 1347.96 891.13 1350.96 897.774L1352.07 903.201C1355.07 909.843 1352.64 917.423 1345.27 920.747L1342.68 921.913C1335.32 925.234 1328.03 922.04 1325.03 915.399L1321.7 910.973Z" fill="#BF694F"/>
<path d="M1345.71 920.519C1352.71 917.102 1355 909.713 1352.07 903.216L1350.95 897.781C1347.96 891.144 1339.56 888.455 1332.19 891.779L1329.87 892.824C1346.48 905.919 1347.63 915.117 1345.7 920.508" fill="#924A3A"/>
<path d="M1336.52 909.441L1339.97 907.884C1345.46 905.407 1348.88 901.144 1350.16 896.333C1349.14 894.789 1347.86 893.503 1346.42 892.594C1345.36 896.888 1342.33 900.686 1337.45 902.887L1334.45 904.242C1329.57 906.444 1324.73 906.192 1320.8 904.15C1320.51 905.825 1320.63 907.645 1321.13 909.427C1325.58 911.658 1331.02 911.923 1336.52 909.442" fill="#DC9382"/>
<path d="M1309.98 891.447C1306.49 883.71 1310.61 874.299 1319.21 870.423L1322.21 869.069C1330.8 865.192 1340.59 868.323 1344.08 876.063L1345.39 882.4C1348.88 890.144 1346.04 898.974 1337.45 902.851L1334.45 904.206C1325.85 908.081 1317.36 904.367 1313.87 896.619L1309.98 891.447Z" fill="#BF694F"/>
<path d="M1339.02 901.895C1346.38 898.291 1348.78 890.527 1345.7 883.691L1344.54 877.977C1341.39 870.99 1332.56 868.165 1324.81 871.661L1322.36 872.763C1339.84 886.529 1341.04 896.211 1339.02 901.893" fill="#924A3A"/>
<path d="M1327.7 890.904L1331.84 889.035C1338.45 886.056 1342.55 880.943 1344.07 875.153C1342.86 873.29 1341.31 871.74 1339.58 870.653C1338.31 875.818 1334.68 880.381 1328.82 883.024L1325.2 884.659C1319.33 887.305 1313.51 886.998 1308.8 884.538C1308.47 886.558 1308.6 888.743 1309.19 890.888C1314.55 893.576 1321.09 893.884 1327.7 890.904Z" fill="#DC9382"/>
<path d="M1298.61 870.013C1294.83 861.639 1299.31 851.449 1308.59 847.259L1311.84 845.793C1321.14 841.599 1331.74 844.988 1335.52 853.362L1336.92 860.218C1340.7 868.6 1337.63 878.149 1328.33 882.343L1325.08 883.809C1315.79 888 1306.6 883.984 1302.82 875.602L1298.61 870.013Z" fill="#BF694F"/>
<path d="M1330.73 881.782C1338.59 877.938 1341.14 869.661 1337.85 862.368L1336.6 856.283C1333.24 848.838 1323.83 845.825 1315.57 849.552L1312.96 850.726C1331.59 865.385 1332.88 875.715 1330.73 881.785" fill="#924A3A"/>
<path d="M1317.33 868.454L1321.87 866.409C1329.11 863.14 1333.62 857.536 1335.29 851.18C1334.02 849.171 1332.32 847.519 1330.37 846.254C1328.97 851.907 1324.98 856.923 1318.55 859.827L1314.59 861.613C1308.16 864.514 1301.76 864.182 1296.6 861.486C1296.23 863.799 1296.36 866.16 1297.03 868.441C1302.89 871.399 1310.08 871.725 1317.33 868.455" fill="#DC9382"/>
<path d="M1289.71 849.982C1285.96 841.672 1290.39 831.566 1299.6 827.408L1302.83 825.952C1312.04 821.797 1322.55 825.164 1326.3 833.474L1327.7 840.259C1331.45 848.568 1328.39 858.047 1319.18 862.203L1315.96 863.658C1306.74 867.816 1297.62 863.827 1293.88 855.517L1289.71 849.982Z" fill="#BF694F"/>
<path d="M1320.57 860.302C1328.63 856.359 1331.25 847.856 1327.88 840.382L1326.6 834.135C1323.15 826.506 1313.49 823.405 1305.03 827.224L1302.35 828.432C1321.46 843.482 1322.79 854.081 1320.57 860.302Z" fill="#924A3A"/>
<path d="M1307.17 845.789L1311.71 843.741C1318.96 840.471 1323.47 834.868 1325.14 828.512C1323.87 826.509 1322.17 824.85 1320.2 823.584C1318.81 829.243 1314.82 834.268 1308.41 837.161L1304.44 838.952C1298 841.856 1291.6 841.514 1286.44 838.811C1286.07 841.023 1286.21 843.424 1286.86 845.778C1292.74 848.731 1299.93 849.057 1307.16 845.793" fill="#DC9382"/>
<path d="M1267.94 805.034C1263.93 796.14 1268.68 785.328 1278.54 780.879L1281.99 779.323C1291.86 774.87 1303.1 778.468 1307.11 787.362L1308.6 794.634C1312.62 803.527 1309.37 813.674 1299.5 818.127L1296.05 819.684C1286.19 824.133 1276.42 819.864 1272.41 810.963L1267.94 805.034Z" fill="#BF694F"/>
<path d="M1300.28 813.465C1308.7 809.356 1311.45 800.481 1307.92 792.675L1306.59 786.153C1302.99 778.178 1292.91 774.933 1284.05 778.927L1281.27 780.186C1301.23 795.905 1302.6 806.967 1300.29 813.455" fill="#924A3A"/>
<path d="M1279.54 827.291C1275.79 818.981 1280.23 808.883 1289.45 804.722L1292.68 803.266C1301.89 799.111 1312.39 802.473 1316.14 810.779L1317.53 817.566C1321.28 825.876 1318.24 835.351 1309.03 839.505L1305.8 840.962C1296.58 845.123 1287.46 841.133 1283.71 832.823L1279.54 827.291Z" fill="#BF694F"/>
<path d="M1310.18 839.013C1318.6 834.897 1321.34 826.029 1317.82 818.224L1316.48 811.699C1312.88 803.725 1302.81 800.517 1293.95 804.513L1291.17 805.769C1311.12 821.487 1312.51 832.55 1310.18 839.032" fill="#924A3A"/>
<path d="M1296.96 823.16L1301.5 821.112C1308.75 817.843 1313.26 812.236 1314.93 805.884C1313.66 803.883 1311.96 802.218 1309.99 800.945C1308.6 806.61 1304.61 811.628 1298.19 814.522L1294.22 816.313C1287.79 819.216 1281.4 818.882 1276.23 816.171C1275.86 818.391 1276 820.797 1276.66 823.157C1282.53 826.099 1289.72 826.428 1296.96 823.164" fill="#DC9382"/>
<path d="M1381.6 767.282C1368.44 748.376 1380.41 765.568 1380.41 765.568C1380.41 765.568 1351.97 728.046 1314.17 731.309L1314.16 731.291C1314.16 731.291 1313.9 731.308 1313.43 731.358L1313.37 731.367C1312.58 731.454 1311.8 731.561 1311.02 731.688C1309.2 731.944 1307.4 732.286 1305.63 732.713L1305.4 732.93C1296.33 735.43 1283 741.716 1279.51 757.155L1279.05 757.595L1278.39 757.322C1267.42 744.069 1251.97 742.13 1242.31 742.447L1242 742.314C1240.14 742.43 1238.31 742.635 1236.49 742.928C1235.72 743.032 1234.96 743.159 1234.21 743.31L1234.09 743.333L1233.39 743.477L1233.39 743.495C1196.81 751.443 1189.35 794.378 1189.35 794.378C1189.35 794.378 1191.79 775.024 1189.1 796.31C1186.41 817.604 1200.51 803.328 1200.51 803.328C1225.75 756.858 1280.75 800.573 1280.75 800.573L1286.18 784.98L1299.04 797.809C1299.04 797.809 1327.95 741.456 1374.57 777.069C1374.57 777.069 1394.78 786.169 1381.62 767.27" fill="#46B295"/>
<path d="M1201.54 794.432C1204.23 773.141 1201.79 792.5 1201.79 792.5C1201.79 792.5 1208.82 752.138 1242.59 742.438L1242.32 742.446L1242.01 742.312C1240.15 742.429 1238.31 742.633 1236.5 742.924C1235.73 743.029 1234.97 743.158 1234.21 743.308L1234.11 743.33L1233.39 743.474L1233.4 743.492C1196.81 751.44 1189.35 794.375 1189.35 794.375C1189.35 794.375 1191.79 775.021 1189.1 796.308C1186.41 817.601 1200.52 803.321 1200.52 803.321C1200.8 802.821 1201.09 802.379 1201.38 801.882C1201.12 800.119 1201.14 797.698 1201.54 794.432Z" fill="#4CA58C"/>
<path d="M1344.89 765.319C1353.72 765.477 1363.65 768.724 1374.57 777.072C1374.57 777.072 1389.06 783.593 1385.5 774.112C1369.74 762.664 1356.04 761.655 1344.89 765.319Z" fill="#4CA58C"/>
<path d="M1291.3 774.583L1289.78 786.318L1294.4 789.441C1294.4 789.441 1295.5 785.127 1298.03 779.144L1291.3 774.587" fill="#375427"/>
<path d="M1319.25 765.836L1319.27 765.817C1319.11 765.713 1318.98 765.647 1318.82 765.553C1317.01 764.455 1315.18 763.377 1313.29 762.371L1312.74 762.332C1282.32 747.749 1261.43 762.666 1252.7 771.313L1251.91 771.633C1250.75 773.011 1249.67 774.421 1248.64 775.845C1248.3 776.279 1248.1 776.551 1248.1 776.551L1248.13 776.571C1222.65 812.552 1234.09 863.935 1234.09 863.935C1234.26 864.596 1234.44 865.307 1234.64 866.063C1240.75 889.501 1245.39 864.439 1245.39 864.439C1245.73 816.15 1275.67 804.431 1291.61 801.621C1307.75 799.593 1341.32 801.712 1365.86 846.279C1365.86 846.279 1382.7 868.078 1376.59 844.654L1376.04 842.528C1376.04 842.525 1360.84 791.706 1319.24 765.843" fill="#44B67B"/>
<path d="M1244.8 864.513C1244.6 863.762 1244.42 863.05 1244.25 862.386C1244.25 862.386 1232.82 810.992 1258.3 775.02L1258.28 774.994C1258.28 774.994 1258.47 774.731 1258.81 774.3C1259.85 772.869 1260.93 771.447 1262.08 770.082L1262.85 769.735C1267.39 765.239 1275.21 759.07 1285.93 756.202C1269.9 756.838 1258.56 765.465 1252.7 771.268L1251.92 771.615C1250.76 772.988 1249.68 774.41 1248.64 775.835C1248.3 776.266 1248.12 776.532 1248.12 776.532L1248.13 776.561C1222.66 812.531 1234.08 863.915 1234.08 863.915C1234.25 864.583 1234.44 865.291 1234.64 866.05C1239.89 886.218 1244.07 870.465 1245.14 865.692C1245.01 865.307 1244.91 864.941 1244.81 864.52" fill="#37A06B"/>
<path d="M1376 844.705C1351.47 800.16 1317.92 798.038 1301.76 800.048C1300.07 800.345 1298.41 800.709 1296.76 801.142C1314.18 800.362 1343.68 805.99 1365.84 846.227C1365.84 846.227 1382.07 867.233 1376.88 845.785C1376.34 845.127 1376 844.691 1376 844.691" fill="#37A06B"/>
</g>
<g clip-path="url(#clip6)" filter="url(#filter12_d)">
<path d="M1371.67 857.353C1371.67 857.353 1361.63 801.991 1317.77 800.555C1317.77 800.555 1300.15 795.542 1314.47 789.8C1328.8 784.054 1315.76 789.277 1315.76 789.277C1315.76 789.277 1350.61 777.612 1380.82 808.441L1396.47 841.801L1395.84 854.126L1371.66 857.346" fill="#37A06B"/>
<path d="M1396.42 851.298C1396.42 851.298 1387.28 795.724 1427.12 773.776C1427.12 773.776 1441.63 760.89 1426.58 762.346C1411.51 763.803 1425.21 762.475 1425.21 762.475C1425.21 762.475 1389.33 768.133 1371.8 810.66L1368.47 848.682L1373.14 859.717L1396.42 851.297" fill="#37A06B"/>
<path d="M1396.97 919.745C1394.99 915.359 1399.36 909.115 1406.72 905.795L1409.3 904.63C1416.67 901.306 1424.25 902.16 1426.23 906.546L1426.58 910.299C1428.56 914.682 1425.3 920.432 1417.93 923.756L1415.35 924.921C1407.99 928.243 1401.52 926.88 1399.54 922.496L1396.97 919.745Z" fill="#BF694F"/>
<path d="M1418.37 923.536C1425.41 920.191 1428.51 914.598 1426.58 910.31L1426.22 906.552C1424.24 902.171 1416.67 901.312 1409.3 904.636L1406.98 905.681C1420.96 912.961 1420.88 919.414 1418.37 923.529" fill="#924A3A"/>
<path d="M1388.41 907.227C1386.1 902.121 1391.19 894.842 1399.78 890.966L1402.78 889.612C1411.38 885.735 1420.2 886.735 1422.51 891.844L1422.93 896.225C1425.24 901.336 1421.44 908.034 1412.84 911.911L1409.84 913.265C1401.25 917.141 1393.72 915.558 1391.41 910.444L1388.41 907.227Z" fill="#BF694F"/>
<path d="M1414.44 911.024C1421.84 907.5 1425.09 901.623 1423.06 897.111L1422.7 893.158C1420.61 888.546 1412.65 887.644 1404.9 891.14L1402.46 892.243C1417.17 899.894 1417.08 906.687 1414.45 911.023" fill="#924A3A"/>
<path d="M1405.18 904.58L1409.32 902.712C1415.92 899.732 1420.44 895.54 1422.61 891.192C1421.71 890.009 1420.45 889.095 1418.95 888.535C1417.1 892.403 1413.1 896.139 1407.24 898.782L1403.62 900.417C1397.75 903.064 1392.3 903.585 1388.17 902.42C1387.6 903.912 1387.45 905.463 1387.73 906.926C1392.44 908.173 1398.57 907.561 1405.18 904.58Z" fill="#DC9382"/>
<path d="M1380.42 893.296C1377.93 887.768 1383.44 879.886 1392.73 875.697L1395.98 874.231C1405.28 870.036 1414.84 871.118 1417.33 876.646L1417.78 881.386C1420.28 886.919 1416.16 894.162 1406.86 898.357L1403.61 899.822C1394.32 904.013 1386.17 902.302 1383.68 896.77L1380.42 893.296Z" fill="#BF694F"/>
<path d="M1409.19 897.648C1417.09 893.889 1420.55 887.624 1418.38 882.81L1417.98 878.603C1415.76 873.689 1407.27 872.726 1399.01 876.454L1396.41 877.627C1412.1 885.773 1412 893.02 1409.2 897.65" fill="#924A3A"/>
<path d="M1398.27 889.791L1402.8 887.746C1410.04 884.478 1415.01 879.881 1417.39 875.108C1416.45 873.829 1415.06 872.86 1413.38 872.201C1411.34 876.435 1406.95 880.543 1400.51 883.446L1396.55 885.232C1390.12 888.133 1384.13 888.71 1379.61 887.433C1378.97 889.139 1378.79 890.817 1379.13 892.369C1384.28 893.745 1391.01 893.062 1398.26 889.793" fill="#DC9382"/>
<path d="M1374.58 880.057C1372.11 874.572 1377.57 866.756 1386.78 862.598L1390.01 861.142C1399.22 856.987 1408.7 858.064 1411.18 863.549L1411.63 868.239C1414.1 873.724 1410.02 880.915 1400.81 885.071L1397.58 886.526C1388.36 890.684 1380.28 888.983 1377.81 883.498L1374.58 880.057Z" fill="#BF694F"/>
<path d="M1402.36 883.529C1410.45 879.674 1414.01 873.238 1411.78 868.305L1411.37 863.986C1409.1 858.95 1400.39 857.956 1391.92 861.775L1389.24 862.982C1405.34 871.347 1405.24 878.784 1402.36 883.529Z" fill="#924A3A"/>
<path d="M1391.58 874.823L1396.12 872.775C1403.36 869.506 1408.33 864.91 1410.71 860.137C1409.77 858.861 1408.38 857.887 1406.68 857.23C1404.65 861.468 1400.25 865.582 1393.84 868.475L1389.87 870.266C1383.43 873.17 1377.45 873.739 1372.93 872.457C1372.29 874.093 1372.12 875.797 1372.44 877.403C1377.6 878.774 1384.33 878.091 1391.57 874.827" fill="#DC9382"/>
<path d="M1359.79 850.578C1357.14 844.707 1363 836.344 1372.86 831.895L1376.31 830.338C1386.18 825.885 1396.32 827.035 1398.97 832.906L1399.44 837.934C1402.09 843.804 1397.74 851.499 1387.87 855.952L1384.42 857.509C1374.56 861.958 1365.9 860.138 1363.25 854.263L1359.79 850.578Z" fill="#BF694F"/>
<path d="M1389.2 852.507C1397.66 848.486 1401.38 841.767 1399.05 836.615L1398.63 832.105C1396.25 826.841 1387.16 825.797 1378.31 829.792L1375.52 831.05C1392.33 839.786 1392.22 847.548 1389.21 852.499" fill="#924A3A"/>
<path d="M1367.89 865.07C1365.41 859.585 1370.88 851.773 1380.11 847.613L1383.34 846.156C1392.54 842.002 1402.02 843.076 1404.49 848.558L1404.94 853.251C1407.41 858.736 1403.34 865.923 1394.13 870.077L1390.9 871.534C1381.67 875.695 1373.59 873.993 1371.12 868.508L1367.89 865.07Z" fill="#BF694F"/>
<path d="M1395.27 869.578C1403.73 865.551 1407.45 858.839 1405.12 853.687L1404.69 849.176C1402.31 843.913 1393.23 842.894 1384.38 846.889L1381.59 848.145C1398.4 856.882 1398.29 864.644 1395.27 869.591" fill="#924A3A"/>
<path d="M1384.84 859.886L1389.38 857.838C1396.63 854.568 1401.59 849.971 1403.97 845.2C1403.03 843.926 1401.64 842.948 1399.94 842.286C1397.91 846.528 1393.51 850.637 1387.1 853.531L1383.13 855.322C1376.69 858.225 1370.71 858.8 1366.19 857.513C1365.55 859.153 1365.38 860.861 1365.7 862.471C1370.86 863.834 1377.59 863.154 1384.83 859.89" fill="#DC9382"/>
<path d="M1471.73 809.007C1461.74 797.117 1470.83 807.929 1470.83 807.929C1470.83 807.929 1448.8 784.628 1412.76 791.786L1412.75 791.774C1412.75 791.774 1412.51 791.82 1412.06 791.915L1411.99 791.93C1411.24 792.093 1410.49 792.269 1409.74 792.46C1407.99 792.875 1406.26 793.349 1404.53 793.881L1404.29 794.066C1395.42 797.015 1382.06 803.224 1376.8 814.747L1376.31 815.123L1375.72 815.01C1367.07 806.898 1352.75 807.476 1343.61 808.934L1343.34 808.877C1341.57 809.198 1339.81 809.579 1338.06 810.021C1337.33 810.193 1336.59 810.381 1335.86 810.585L1335.75 810.617L1335.07 810.81L1335.07 810.822C1299.58 821.186 1287.07 852.946 1287.07 852.946C1287.07 852.946 1291.84 838.747 1286.59 854.364C1281.34 869.986 1296.45 857.946 1296.45 857.946C1326.17 821.384 1372.43 845.745 1372.43 845.745L1379.54 833.864L1390.02 841.432C1390.02 841.432 1424.45 797.311 1463.86 816.925C1463.86 816.925 1481.74 820.88 1471.75 808.996" fill="#46B295"/>
<path d="M1298.56 851.431C1303.8 835.811 1299.04 850.013 1299.04 850.013C1299.04 850.013 1310.81 820.154 1343.88 808.891L1343.62 808.932L1343.34 808.876C1341.58 809.196 1339.82 809.577 1338.07 810.017C1337.33 810.19 1336.6 810.379 1335.87 810.584L1335.77 810.612L1335.07 810.807L1335.08 810.819C1299.58 821.183 1287.08 852.943 1287.08 852.943C1287.08 852.943 1291.84 838.744 1286.6 854.361C1281.35 869.983 1296.47 857.938 1296.47 857.938C1296.79 857.545 1297.13 857.19 1297.46 856.797C1297.44 855.564 1297.76 853.826 1298.56 851.431Z" fill="#4CA58C"/>
<path d="M1437.38 812.276C1445.68 811.265 1454.63 812.329 1463.86 816.927C1463.86 816.927 1476.68 819.761 1474.54 813.412C1461.14 807.204 1448.36 808.226 1437.38 812.276Z" fill="#4CA58C"/>
<path d="M1385.69 825.751L1382.76 834.366L1386.72 836.018C1386.72 836.018 1388.31 832.781 1391.45 828.166L1385.68 825.755" fill="#375427"/>
<path d="M1413.15 815.913L1413.17 815.897C1413.03 815.843 1412.91 815.812 1412.78 815.765C1411.22 815.207 1409.63 814.667 1407.97 814.187L1407.46 814.229C1380.65 807.64 1359.05 821.006 1349.72 828.323L1348.94 828.653C1347.67 829.79 1346.47 830.938 1345.32 832.092C1344.95 832.446 1344.72 832.667 1344.72 832.667L1344.74 832.678C1316.15 861.743 1320.38 897.156 1320.38 897.156C1320.46 897.608 1320.54 898.095 1320.63 898.612C1323.4 914.652 1330.97 896.077 1330.97 896.077C1337.44 861.384 1367.15 849.16 1382.54 845.112C1398.01 841.601 1429.38 838.845 1446.83 867.697C1446.83 867.697 1459.93 881.193 1457.15 865.164L1456.9 863.708C1456.9 863.706 1449.05 829.178 1413.14 815.919" fill="#44B67B"/>
<path d="M1330.41 896.205C1330.31 895.691 1330.23 895.204 1330.16 894.749C1330.16 894.749 1325.93 859.328 1354.53 830.269L1354.52 830.253C1354.52 830.253 1354.73 830.04 1355.1 829.688C1356.26 828.528 1357.47 827.37 1358.72 826.244L1359.5 825.896C1364.34 822.093 1372.5 816.67 1382.97 813.245C1367.78 815.745 1355.99 823.38 1349.73 828.291L1348.95 828.639C1347.68 829.772 1346.49 830.929 1345.32 832.085C1344.95 832.437 1344.74 832.651 1344.74 832.651L1344.75 832.67C1316.16 861.726 1320.38 897.142 1320.38 897.142C1320.46 897.599 1320.54 898.084 1320.63 898.603C1323.01 912.405 1328.95 900.57 1330.57 897.008C1330.5 896.748 1330.45 896.498 1330.41 896.209" fill="#37A06B"/>
<path d="M1456.59 865.275C1439.15 836.437 1407.79 839.189 1392.3 842.69C1390.68 843.118 1389.06 843.592 1387.45 844.112C1403.97 841.334 1431.06 841.613 1446.82 867.661C1446.82 867.661 1459.44 880.667 1457.28 865.938C1456.85 865.535 1456.58 865.266 1456.58 865.266" fill="#37A06B"/>
</g>
<g clip-path="url(#clip7)" filter="url(#filter13_d)">
<path d="M1419.12 770.496C1419.12 770.496 1400.84 700.561 1358.55 691.931C1358.55 691.931 1340.88 682.987 1353.71 678.136C1366.55 673.279 1354.87 677.692 1354.87 677.692C1354.87 677.692 1386.46 668.734 1420.25 711.528L1440.47 755.169L1441.79 770.29L1419.11 770.487" fill="#37A06B"/>
<path d="M1441.9 766.888C1441.9 766.888 1424.45 696.833 1459.22 675.958C1459.22 675.958 1471.12 662.315 1456.92 661.759C1442.7 661.204 1455.62 661.704 1455.62 661.704C1455.62 661.704 1422.11 663.082 1411.95 712.858L1414.69 759.287L1420.89 773.644L1441.9 766.887" fill="#37A06B"/>
<path d="M1442.96 834.701C1439.95 828.035 1443.69 819.842 1451.33 816.399L1453.99 815.196C1461.63 811.752 1470.25 814.366 1473.25 821.035L1474.35 826.511C1477.36 833.184 1474.76 840.861 1467.12 844.305L1464.46 845.508C1456.83 848.951 1449.36 845.818 1446.34 839.142L1442.96 834.701Z" fill="#BF694F"/>
<path d="M1433.13 816.249C1429.87 809.033 1433.93 800.162 1442.18 796.44L1445.07 795.138C1453.33 791.412 1462.66 794.242 1465.91 801.458L1467.09 807.382C1470.34 814.604 1467.53 822.906 1459.27 826.632L1456.39 827.934C1448.13 831.657 1440.05 828.27 1436.79 821.048L1433.13 816.249Z" fill="#BF694F"/>
<path d="M1449.69 814.711L1453.72 812.894C1460.15 809.991 1464.2 805.092 1465.73 799.57C1464.63 797.842 1463.15 796.428 1461.43 795.353C1460.14 800.262 1456.57 804.648 1450.85 807.227L1447.33 808.813C1441.62 811.39 1435.97 811.167 1431.44 808.883C1431.09 810.89 1431.18 812.934 1431.74 814.903C1436.9 817.407 1443.25 817.617 1449.69 814.713" fill="#DC9382"/>
<path d="M1425.46 798.988C1422.23 791.828 1426.24 783.03 1434.43 779.336L1437.3 778.043C1445.48 774.352 1454.74 777.164 1457.97 784.324L1459.13 790.186C1462.36 797.346 1459.57 805.587 1451.39 809.279L1448.52 810.572C1440.33 814.265 1432.32 810.901 1429.09 803.741L1425.46 798.988Z" fill="#BF694F"/>
<path d="M1452.63 807.618C1459.79 804.122 1462.2 796.731 1459.29 790.292L1458.22 784.893C1455.25 778.32 1446.75 775.73 1439.23 779.123L1436.85 780.195C1453.59 793.04 1454.65 802.208 1452.63 807.618Z" fill="#924A3A"/>
<path d="M1440.94 795.181L1444.97 793.362C1451.41 790.458 1455.45 785.559 1456.99 780.038C1455.89 778.315 1454.4 776.895 1452.67 775.818C1451.38 780.733 1447.81 785.126 1442.11 787.696L1438.59 789.287C1432.87 791.866 1427.22 791.634 1422.69 789.345C1422.33 791.265 1422.43 793.343 1422.99 795.375C1428.15 797.874 1434.5 798.084 1440.93 795.185" fill="#DC9382"/>
<path d="M1406.67 760.272C1403.21 752.609 1407.52 743.197 1416.28 739.245L1419.34 737.862C1428.11 733.906 1438.01 736.911 1441.47 744.574L1442.71 750.858C1446.17 758.521 1443.2 767.342 1434.43 771.298L1431.37 772.681C1422.6 776.633 1414.02 773.033 1410.56 765.363L1406.67 760.272Z" fill="#BF694F"/>
<path d="M1435.17 767.252C1442.65 763.609 1445.17 755.894 1442.13 749.169L1441.02 743.532C1437.92 736.661 1429.04 733.951 1421.17 737.499L1418.7 738.617C1436.18 752.033 1437.29 761.601 1435.17 767.244" fill="#924A3A"/>
<path d="M1416.7 779.435C1413.47 772.274 1417.49 763.483 1425.68 759.788L1428.55 758.493C1436.73 754.803 1445.98 757.61 1449.21 764.767L1450.38 770.632C1453.61 777.792 1450.82 786.03 1442.64 789.72L1439.77 791.014C1431.58 794.71 1423.56 791.345 1420.33 784.185L1416.7 779.435Z" fill="#BF694F"/>
<path d="M1443.66 789.282C1451.14 785.633 1453.65 777.924 1450.62 771.199L1449.5 765.561C1446.4 758.69 1437.53 756.012 1429.66 759.561L1427.19 760.677C1444.67 774.092 1445.78 783.661 1443.66 789.299" fill="#924A3A"/>
<path d="M1432.14 775.683L1436.17 773.863C1442.61 770.959 1446.65 766.058 1448.19 760.539C1447.09 758.819 1445.6 757.393 1443.87 756.311C1442.59 761.232 1439.01 765.618 1433.31 768.188L1429.79 769.779C1424.07 772.359 1418.42 772.133 1413.89 769.837C1413.53 771.763 1413.64 773.846 1414.19 775.883C1419.35 778.373 1425.7 778.586 1432.13 775.686" fill="#DC9382"/>
<path d="M1507.5 726.437C1496.06 710.192 1506.47 724.964 1506.47 724.964C1506.47 724.964 1481.71 692.749 1448.26 695.952L1448.26 695.937C1448.26 695.937 1448.03 695.954 1447.61 696.002L1447.56 696.01C1446.86 696.094 1446.17 696.195 1445.48 696.312C1443.87 696.552 1442.28 696.866 1440.71 697.254L1440.5 697.444C1432.46 699.7 1420.62 705.278 1417.38 718.685L1416.96 719.071L1416.39 718.841C1406.82 707.472 1393.18 705.947 1384.65 706.318L1384.37 706.206C1382.73 706.325 1381.1 706.521 1379.49 706.793C1378.82 706.89 1378.14 707.008 1377.47 707.146L1377.37 707.167L1376.75 707.299L1376.75 707.315C1344.34 714.564 1337.31 751.828 1337.31 751.828C1337.31 751.828 1339.66 735.04 1337.08 753.505C1334.48 771.975 1347.09 759.469 1347.09 759.469C1369.86 718.966 1418.03 756.281 1418.03 756.281L1422.99 742.72L1434.22 753.704C1434.22 753.704 1460.34 704.603 1501.19 734.985C1501.19 734.985 1518.96 742.665 1507.52 726.426" fill="#46B295"/>
<path d="M1348.09 751.753C1350.68 733.285 1348.33 750.077 1348.33 750.077C1348.33 750.077 1354.95 715.046 1384.89 706.307L1384.65 706.317L1384.38 706.205C1382.73 706.324 1381.11 706.519 1379.5 706.789C1378.82 706.888 1378.15 707.007 1377.48 707.145L1377.38 707.165L1376.75 707.297L1376.76 707.313C1344.34 714.562 1337.32 751.826 1337.32 751.826C1337.32 751.826 1339.67 735.038 1337.08 753.502C1334.49 771.973 1347.1 759.463 1347.1 759.463C1347.35 759.027 1347.62 758.641 1347.87 758.208C1347.67 756.683 1347.7 754.586 1348.09 751.753Z" fill="#4CA58C"/>
<path d="M1427.62 733.664L1426.16 743.844L1430.21 746.503C1430.21 746.503 1431.23 742.755 1433.52 737.547L1427.62 733.668" fill="#375427"/>
<path d="M1452.41 725.807L1452.43 725.791C1452.29 725.703 1452.17 725.647 1452.03 725.567C1450.45 724.634 1448.84 723.718 1447.18 722.867L1446.69 722.838C1419.95 710.51 1401.34 723.64 1393.53 731.217L1392.84 731.502C1391.8 732.708 1390.83 733.939 1389.9 735.183C1389.6 735.562 1389.42 735.8 1389.42 735.8L1389.44 735.817C1366.57 767.238 1376.16 811.629 1376.16 811.629C1376.31 812.2 1376.46 812.814 1376.63 813.467C1381.79 833.707 1386.15 811.953 1386.15 811.953C1386.93 770.123 1413.5 759.673 1427.63 757.08C1441.91 755.162 1471.56 756.662 1492.8 795.019C1492.8 795.019 1507.47 813.732 1502.3 793.504L1501.83 791.668C1501.84 791.666 1488.91 747.8 1452.41 725.814" fill="#44B67B"/>
<path d="M1385.63 812.022C1385.46 811.374 1385.3 810.759 1385.16 810.186C1385.16 810.186 1375.57 765.784 1398.45 734.372L1398.43 734.349C1398.43 734.349 1398.6 734.12 1398.91 733.743C1399.84 732.493 1400.81 731.251 1401.84 730.056L1402.53 729.748C1406.58 725.809 1413.55 720.388 1423.06 717.796C1408.88 718.507 1398.78 726.093 1393.53 731.178L1392.84 731.486C1391.8 732.687 1390.84 733.929 1389.9 735.174C1389.6 735.551 1389.44 735.783 1389.44 735.783L1389.45 735.808C1366.57 767.218 1376.16 811.612 1376.16 811.612C1376.3 812.188 1376.46 812.8 1376.63 813.455C1381.07 830.871 1384.92 817.185 1385.91 813.041C1385.8 812.708 1385.72 812.392 1385.63 812.028" fill="#37A06B"/>
<path d="M1501.78 793.554C1480.55 755.216 1450.91 753.713 1436.61 755.616C1435.12 755.889 1433.64 756.222 1432.18 756.613C1447.58 755.764 1473.6 760.344 1492.79 794.974C1492.79 794.974 1506.92 813.006 1502.54 794.481C1502.07 793.916 1501.77 793.542 1501.77 793.542" fill="#37A06B"/>
</g>
<rect x="1082.71" y="639.68" width="302" height="21.9827" rx="10.9914" transform="rotate(-24.2802 1082.71 639.68)" fill="#36869D"/>
<rect x="1196.92" y="637.523" width="106" height="8" rx="4" transform="rotate(-24.2802 1196.92 637.523)" fill="#36869D"/>
<rect x="1170" y="664.914" width="187.048" height="8" rx="4" transform="rotate(-24.2802 1170 664.914)" fill="#36869D"/>
<rect x="1176" y="679.914" width="187.048" height="8" rx="4" transform="rotate(-24.2802 1176 679.914)" fill="#36869D"/>
</g>
<circle cx="754.448" cy="466.448" r="43" transform="rotate(51.2675 754.448 466.448)" fill="url(#paint6_linear)"/>
<circle cx="656.662" cy="896.662" r="21.1" transform="rotate(51.2675 656.662 896.662)" fill="url(#paint7_linear)"/>
<circle cx="839.149" cy="536.15" r="15.3024" transform="rotate(12 839.149 536.15)" fill="url(#paint8_linear)"/>
<circle cx="873.695" cy="433.695" r="15.3024" transform="rotate(-62 873.695 433.695)" fill="url(#paint9_linear)"/>
<circle cx="939.252" cy="108.675" r="13.8231" transform="rotate(-55 939.252 108.675)" fill="url(#paint10_linear)"/>
<circle cx="1188.33" cy="69.3806" r="27.7051" transform="rotate(-157 1188.33 69.3806)" fill="url(#paint11_linear)"/>
<circle cx="1257.78" cy="93.7781" r="11.6167" transform="rotate(12 1257.78 93.7781)" fill="url(#paint12_linear)"/>
</g>
<defs>
<filter id="filter0_i" x="726" y="81" width="791.522" height="865.677" filterUnits="userSpaceOnUse" color-interpolation-filters="sRGB">
<feFlood flood-opacity="0" result="BackgroundImageFix"/>
<feBlend mode="normal" in="SourceGraphic" in2="BackgroundImageFix" result="shape"/>
<feColorMatrix in="SourceAlpha" type="matrix" values="0 0 0 0 0 0 0 0 0 0 0 0 0 0 0 0 0 0 127 0" result="hardAlpha"/>
<feOffset dy="4"/>
<feGaussianBlur stdDeviation="8"/>
<feComposite in2="hardAlpha" operator="arithmetic" k2="-1" k3="1"/>
<feColorMatrix type="matrix" values="0 0 0 0 0 0 0 0 0 0 0 0 0 0 0 0 0 0 0.25 0"/>
<feBlend mode="normal" in2="shape" result="effect1_innerShadow"/>
</filter>
<filter id="filter1_d" x="897.574" y="534.645" width="648.015" height="790.22" filterUnits="userSpaceOnUse" color-interpolation-filters="sRGB">
<feFlood flood-opacity="0" result="BackgroundImageFix"/>
<feColorMatrix in="SourceAlpha" type="matrix" values="0 0 0 0 0 0 0 0 0 0 0 0 0 0 0 0 0 0 127 0" result="hardAlpha"/>
<feOffset dy="4"/>
<feGaussianBlur stdDeviation="2"/>
<feComposite in2="hardAlpha" operator="out"/>
<feColorMatrix type="matrix" values="0 0 0 0 0 0 0 0 0 0 0 0 0 0 0 0 0 0 0.25 0"/>
<feBlend mode="normal" in2="BackgroundImageFix" result="effect1_dropShadow"/>
<feBlend mode="normal" in="SourceGraphic" in2="effect1_dropShadow" result="shape"/>
</filter>
<filter id="filter2_d" x="1070.78" y="731.008" width="28.8189" height="28.8189" filterUnits="userSpaceOnUse" color-interpolation-filters="sRGB">
<feFlood flood-opacity="0" result="BackgroundImageFix"/>
<feColorMatrix in="SourceAlpha" type="matrix" values="0 0 0 0 0 0 0 0 0 0 0 0 0 0 0 0 0 0 127 0" result="hardAlpha"/>
<feOffset dy="4"/>
<feGaussianBlur stdDeviation="2"/>
<feComposite in2="hardAlpha" operator="out"/>
<feColorMatrix type="matrix" values="0 0 0 0 0 0 0 0 0 0 0 0 0 0 0 0 0 0 0.25 0"/>
<feBlend mode="normal" in2="BackgroundImageFix" result="effect1_dropShadow"/>
<feBlend mode="normal" in="SourceGraphic" in2="effect1_dropShadow" result="shape"/>
</filter>
<filter id="filter3_d" x="1070.6" y="754.267" width="28.8189" height="28.8189" filterUnits="userSpaceOnUse" color-interpolation-filters="sRGB">
<feFlood flood-opacity="0" result="BackgroundImageFix"/>
<feColorMatrix in="SourceAlpha" type="matrix" values="0 0 0 0 0 0 0 0 0 0 0 0 0 0 0 0 0 0 127 0" result="hardAlpha"/>
<feOffset dy="4"/>
<feGaussianBlur stdDeviation="2"/>
<feComposite in2="hardAlpha" operator="out"/>
<feColorMatrix type="matrix" values="0 0 0 0 0 0 0 0 0 0 0 0 0 0 0 0 0 0 0.25 0"/>
<feBlend mode="normal" in2="BackgroundImageFix" result="effect1_dropShadow"/>
<feBlend mode="normal" in="SourceGraphic" in2="effect1_dropShadow" result="shape"/>
</filter>
<filter id="filter4_d" x="1074.28" y="777.776" width="23.0015" height="23.0015" filterUnits="userSpaceOnUse" color-interpolation-filters="sRGB">
<feFlood flood-opacity="0" result="BackgroundImageFix"/>
<feColorMatrix in="SourceAlpha" type="matrix" values="0 0 0 0 0 0 0 0 0 0 0 0 0 0 0 0 0 0 127 0" result="hardAlpha"/>
<feOffset dy="4"/>
<feGaussianBlur stdDeviation="2"/>
<feComposite in2="hardAlpha" operator="out"/>
<feColorMatrix type="matrix" values="0 0 0 0 0 0 0 0 0 0 0 0 0 0 0 0 0 0 0.25 0"/>
<feBlend mode="normal" in2="BackgroundImageFix" result="effect1_dropShadow"/>
<feBlend mode="normal" in="SourceGraphic" in2="effect1_dropShadow" result="shape"/>
</filter>
<filter id="filter5_d" x="969.699" y="780.357" width="222.592" height="215.747" filterUnits="userSpaceOnUse" color-interpolation-filters="sRGB">
<feFlood flood-opacity="0" result="BackgroundImageFix"/>
<feColorMatrix in="SourceAlpha" type="matrix" values="0 0 0 0 0 0 0 0 0 0 0 0 0 0 0 0 0 0 127 0" result="hardAlpha"/>
<feOffset dy="4"/>
<feGaussianBlur stdDeviation="2"/>
<feComposite in2="hardAlpha" operator="out"/>
<feColorMatrix type="matrix" values="0 0 0 0 0 0 0 0 0 0 0 0 0 0 0 0 0 0 0.25 0"/>
<feBlend mode="normal" in2="BackgroundImageFix" result="effect1_dropShadow"/>
<feBlend mode="normal" in="SourceGraphic" in2="effect1_dropShadow" result="shape"/>
</filter>
<filter id="filter6_d" x="1110" y="214" width="661.162" height="803.367" filterUnits="userSpaceOnUse" color-interpolation-filters="sRGB">
<feFlood flood-opacity="0" result="BackgroundImageFix"/>
<feColorMatrix in="SourceAlpha" type="matrix" values="0 0 0 0 0 0 0 0 0 0 0 0 0 0 0 0 0 0 127 0" result="hardAlpha"/>
<feOffset dy="4"/>
<feGaussianBlur stdDeviation="2"/>
<feComposite in2="hardAlpha" operator="out"/>
<feColorMatrix type="matrix" values="0 0 0 0 0 0 0 0 0 0 0 0 0 0 0 0 0 0 0.25 0"/>
<feBlend mode="normal" in2="BackgroundImageFix" result="effect1_dropShadow"/>
<feBlend mode="normal" in="SourceGraphic" in2="effect1_dropShadow" result="shape"/>
</filter>
<filter id="filter7_d" x="1319.23" y="290.399" width="189.494" height="197.707" filterUnits="userSpaceOnUse" color-interpolation-filters="sRGB">
<feFlood flood-opacity="0" result="BackgroundImageFix"/>
<feColorMatrix in="SourceAlpha" type="matrix" values="0 0 0 0 0 0 0 0 0 0 0 0 0 0 0 0 0 0 127 0" result="hardAlpha"/>
<feOffset dy="4"/>
<feGaussianBlur stdDeviation="2"/>
<feComposite in2="hardAlpha" operator="out"/>
<feColorMatrix type="matrix" values="0 0 0 0 0 0 0 0 0 0 0 0 0 0 0 0 0 0 0.25 0"/>
<feBlend mode="normal" in2="BackgroundImageFix" result="effect1_dropShadow"/>
<feBlend mode="normal" in="SourceGraphic" in2="effect1_dropShadow" result="shape"/>
</filter>
<filter id="filter8_d" x="991.45" y="374.45" width="642.445" height="789.547" filterUnits="userSpaceOnUse" color-interpolation-filters="sRGB">
<feFlood flood-opacity="0" result="BackgroundImageFix"/>
<feColorMatrix in="SourceAlpha" type="matrix" values="0 0 0 0 0 0 0 0 0 0 0 0 0 0 0 0 0 0 127 0" result="hardAlpha"/>
<feOffset dy="4"/>
<feGaussianBlur stdDeviation="2"/>
<feComposite in2="hardAlpha" operator="out"/>
<feColorMatrix type="matrix" values="0 0 0 0 0 0 0 0 0 0 0 0 0 0 0 0 0 0 0.25 0"/>
<feBlend mode="normal" in2="BackgroundImageFix" result="effect1_dropShadow"/>
<feBlend mode="normal" in="SourceGraphic" in2="effect1_dropShadow" result="shape"/>
</filter>
<filter id="filter9_d" x="1136.86" y="426.745" width="206.504" height="108.436" filterUnits="userSpaceOnUse" color-interpolation-filters="sRGB">
<feFlood flood-opacity="0" result="BackgroundImageFix"/>
<feColorMatrix in="SourceAlpha" type="matrix" values="0 0 0 0 0 0 0 0 0 0 0 0 0 0 0 0 0 0 127 0" result="hardAlpha"/>
<feOffset dy="4"/>
<feGaussianBlur stdDeviation="2"/>
<feComposite in2="hardAlpha" operator="out"/>
<feColorMatrix type="matrix" values="0 0 0 0 0 0 0 0 0 0 0 0 0 0 0 0 0 0 0.25 0"/>
<feBlend mode="normal" in2="BackgroundImageFix" result="effect1_dropShadow"/>
<feBlend mode="normal" in="SourceGraphic" in2="effect1_dropShadow" result="shape"/>
</filter>
<filter id="filter10_d" x="1124.9" y="758.342" width="268.581" height="268.581" filterUnits="userSpaceOnUse" color-interpolation-filters="sRGB">
<feFlood flood-opacity="0" result="BackgroundImageFix"/>
<feColorMatrix in="SourceAlpha" type="matrix" values="0 0 0 0 0 0 0 0 0 0 0 0 0 0 0 0 0 0 127 0" result="hardAlpha"/>
<feOffset dy="4"/>
<feGaussianBlur stdDeviation="2"/>
<feComposite in2="hardAlpha" operator="out"/>
<feColorMatrix type="matrix" values="0 0 0 0 0 0 0 0 0 0 0 0 0 0 0 0 0 0 0.25 0"/>
<feBlend mode="normal" in2="BackgroundImageFix" result="effect1_dropShadow"/>
<feBlend mode="normal" in="SourceGraphic" in2="effect1_dropShadow" result="shape"/>
</filter>
<filter id="filter11_d" x="1150.7" y="650.165" width="291.608" height="319.627" filterUnits="userSpaceOnUse" color-interpolation-filters="sRGB">
<feFlood flood-opacity="0" result="BackgroundImageFix"/>
<feColorMatrix in="SourceAlpha" type="matrix" values="0 0 0 0 0 0 0 0 0 0 0 0 0 0 0 0 0 0 127 0" result="hardAlpha"/>
<feOffset dy="4"/>
<feGaussianBlur stdDeviation="2"/>
<feComposite in2="hardAlpha" operator="out"/>
<feColorMatrix type="matrix" values="0 0 0 0 0 0 0 0 0 0 0 0 0 0 0 0 0 0 0.25 0"/>
<feBlend mode="normal" in2="BackgroundImageFix" result="effect1_dropShadow"/>
<feBlend mode="normal" in="SourceGraphic" in2="effect1_dropShadow" result="shape"/>
</filter>
<filter id="filter12_d" x="1258.47" y="730.999" width="256.245" height="241.234" filterUnits="userSpaceOnUse" color-interpolation-filters="sRGB">
<feFlood flood-opacity="0" result="BackgroundImageFix"/>
<feColorMatrix in="SourceAlpha" type="matrix" values="0 0 0 0 0 0 0 0 0 0 0 0 0 0 0 0 0 0 127 0" result="hardAlpha"/>
<feOffset dy="4"/>
<feGaussianBlur stdDeviation="2"/>
<feComposite in2="hardAlpha" operator="out"/>
<feColorMatrix type="matrix" values="0 0 0 0 0 0 0 0 0 0 0 0 0 0 0 0 0 0 0.25 0"/>
<feBlend mode="normal" in2="BackgroundImageFix" result="effect1_dropShadow"/>
<feBlend mode="normal" in="SourceGraphic" in2="effect1_dropShadow" result="shape"/>
</filter>
<filter id="filter13_d" x="1303.32" y="625.467" width="257.162" height="278.677" filterUnits="userSpaceOnUse" color-interpolation-filters="sRGB">
<feFlood flood-opacity="0" result="BackgroundImageFix"/>
<feColorMatrix in="SourceAlpha" type="matrix" values="0 0 0 0 0 0 0 0 0 0 0 0 0 0 0 0 0 0 127 0" result="hardAlpha"/>
<feOffset dy="4"/>
<feGaussianBlur stdDeviation="2"/>
<feComposite in2="hardAlpha" operator="out"/>
<feColorMatrix type="matrix" values="0 0 0 0 0 0 0 0 0 0 0 0 0 0 0 0 0 0 0.25 0"/>
<feBlend mode="normal" in2="BackgroundImageFix" result="effect1_dropShadow"/>
<feBlend mode="normal" in="SourceGraphic" in2="effect1_dropShadow" result="shape"/>
</filter>
<radialGradient id="paint0_angular" cx="0" cy="0" r="1" gradientUnits="userSpaceOnUse" gradientTransform="translate(1121.76 511.838) rotate(90) scale(430.838 395.761)">
<stop stop-color="#4E818F"/>
<stop offset="0.140625" stop-color="#66B7CF" stop-opacity="0.961111"/>
<stop offset="0.324543" stop-color="#54C8EA" stop-opacity="0.819426"/>
<stop offset="0.46875" stop-color="#8AD0E4" stop-opacity="0.708333"/>
<stop offset="0.621697" stop-color="#4AB6D7" stop-opacity="0.504404"/>
<stop offset="1" stop-color="#00475E" stop-opacity="0"/>
</radialGradient>
<linearGradient id="paint1_linear" x1="1094" y1="696.273" x2="1094" y2="1388.27" gradientUnits="userSpaceOnUse">
<stop stop-color="#D0E8FE"/>
<stop offset="1" stop-color="white" stop-opacity="0"/>
</linearGradient>
<linearGradient id="paint2_linear" x1="1023.39" y1="762.19" x2="1111.29" y2="950.702" gradientUnits="userSpaceOnUse">
<stop offset="0.484375" stop-color="#71AE6C"/>
<stop offset="1" stop-color="#71AE6C" stop-opacity="0"/>
</linearGradient>
<linearGradient id="paint3_linear" x1="1313" y1="382.202" x2="1313" y2="1074.2" gradientUnits="userSpaceOnUse">
<stop offset="0.291667" stop-color="#F4CFAD"/>
<stop offset="1" stop-color="#DEAB8E" stop-opacity="0"/>
</linearGradient>
<linearGradient id="paint4_linear" x1="1377.71" y1="294.12" x2="1449.23" y2="447.505" gradientUnits="userSpaceOnUse">
<stop stop-color="#DF7F56"/>
<stop offset="1" stop-color="#DF7F56" stop-opacity="0"/>
</linearGradient>
<linearGradient id="paint5_linear" x1="1188" y1="531.657" x2="1188" y2="1223.66" gradientUnits="userSpaceOnUse">
<stop stop-color="#FFE8E8"/>
<stop offset="0.557292" stop-color="#FFE8E8"/>
<stop offset="1" stop-color="#FFE8E8"/>
</linearGradient>
<linearGradient id="paint6_linear" x1="754.448" y1="423.448" x2="754.448" y2="509.448" gradientUnits="userSpaceOnUse">
<stop stop-color="#33AACD"/>
<stop offset="0.201504" stop-color="#3CB3D7"/>
<stop offset="0.527263" stop-color="#66CCEA"/>
<stop offset="0.67697" stop-color="#78D5EF"/>
<stop offset="0.896357" stop-color="#80E2FF"/>
</linearGradient>
<linearGradient id="paint7_linear" x1="656.662" y1="875.562" x2="656.662" y2="917.762" gradientUnits="userSpaceOnUse">
<stop stop-color="#33AACD"/>
<stop offset="0.201504" stop-color="#3CB3D7"/>
<stop offset="0.527263" stop-color="#66CCEA"/>
<stop offset="0.67697" stop-color="#78D5EF"/>
<stop offset="0.896357" stop-color="#80E2FF"/>
</linearGradient>
<linearGradient id="paint8_linear" x1="839.149" y1="520.847" x2="839.149" y2="551.452" gradientUnits="userSpaceOnUse">
<stop stop-color="#33AACD"/>
<stop offset="0.201504" stop-color="#3CB3D7"/>
<stop offset="0.527263" stop-color="#66CCEA"/>
<stop offset="0.67697" stop-color="#78D5EF"/>
<stop offset="0.896357" stop-color="#80E2FF"/>
</linearGradient>
<linearGradient id="paint9_linear" x1="873.695" y1="418.393" x2="873.695" y2="448.998" gradientUnits="userSpaceOnUse">
<stop stop-color="#33AACD"/>
<stop offset="0.201504" stop-color="#3CB3D7"/>
<stop offset="0.527263" stop-color="#66CCEA"/>
<stop offset="0.67697" stop-color="#78D5EF"/>
<stop offset="0.896357" stop-color="#80E2FF"/>
</linearGradient>
<linearGradient id="paint10_linear" x1="939.252" y1="94.8521" x2="939.252" y2="122.498" gradientUnits="userSpaceOnUse">
<stop stop-color="#33AACD"/>
<stop offset="0.201504" stop-color="#3CB3D7"/>
<stop offset="0.527263" stop-color="#66CCEA"/>
<stop offset="0.67697" stop-color="#78D5EF"/>
<stop offset="0.896357" stop-color="#80E2FF"/>
</linearGradient>
<linearGradient id="paint11_linear" x1="1188.33" y1="41.6755" x2="1188.33" y2="97.0857" gradientUnits="userSpaceOnUse">
<stop stop-color="#33AACD"/>
<stop offset="0.201504" stop-color="#3CB3D7"/>
<stop offset="0.527263" stop-color="#66CCEA"/>
<stop offset="0.67697" stop-color="#78D5EF"/>
<stop offset="0.896357" stop-color="#80E2FF"/>
</linearGradient>
<linearGradient id="paint12_linear" x1="1257.78" y1="82.1614" x2="1257.78" y2="105.395" gradientUnits="userSpaceOnUse">
<stop stop-color="#33AACD"/>
<stop offset="0.201504" stop-color="#3CB3D7"/>
<stop offset="0.527263" stop-color="#66CCEA"/>
<stop offset="0.67697" stop-color="#78D5EF"/>
<stop offset="0.896357" stop-color="#80E2FF"/>
</linearGradient>
<clipPath id="clip0">
<rect width="1440" height="900" fill="white"/>
</clipPath>
<clipPath id="clip1">
<rect width="76" height="76" fill="white" transform="matrix(-0.739554 0.673097 0.673097 0.739554 1276.37 625.467)"/>
</clipPath>
<clipPath id="clip2">
<rect width="231" height="231" fill="white" transform="matrix(-0.906308 0.422618 0.422618 0.906308 1468.36 220)"/>
</clipPath>
<clipPath id="clip3">
<rect width="76" height="76" fill="white" transform="translate(1035.83 535.764) rotate(-24.2802)"/>
</clipPath>
<clipPath id="clip4">
<rect width="197" height="197" fill="white" transform="translate(1128.9 839.348) rotate(-24.2802)"/>
</clipPath>
<clipPath id="clip5">
<rect width="197" height="253" fill="white" transform="translate(1154.7 731.171) rotate(-24.2802)"/>
</clipPath>
<clipPath id="clip6">
<rect width="197" height="167" fill="white" transform="translate(1262.47 812.005) rotate(-24.2802)"/>
</clipPath>
<clipPath id="clip7">
<rect width="175" height="218" fill="white" transform="translate(1307.32 697.427) rotate(-24.2802)"/>
</clipPath>
</defs>
</svg>
