<svg width="402" height="245" viewBox="0 0 402 245" fill="none" xmlns="http://www.w3.org/2000/svg">
<g filter="url(#filter0_d)">
<rect x="6" y="1.47559" width="391" height="235" rx="20" fill="#1081A3"/>
</g>
<g filter="url(#filter1_d)">
<path d="M41.192 192.696V195.064H35.112V215H32.2V195.064H26.088V192.696H41.192ZM47.6885 200.312C48.2005 199.309 48.9258 198.531 49.8645 197.976C50.8245 197.421 51.9872 197.144 53.3525 197.144V200.152H52.5845C49.3205 200.152 47.6885 201.923 47.6885 205.464V215H44.7765V197.464H47.6885V200.312ZM55.626 206.168C55.626 204.376 55.9887 202.808 56.714 201.464C57.4393 200.099 58.4313 199.043 59.69 198.296C60.97 197.549 62.3887 197.176 63.946 197.176C65.482 197.176 66.8153 197.507 67.946 198.168C69.0767 198.829 69.9193 199.661 70.474 200.664V197.464H73.418V215H70.474V211.736C69.898 212.76 69.034 213.613 67.882 214.296C66.7513 214.957 65.4287 215.288 63.914 215.288C62.3567 215.288 60.9487 214.904 59.69 214.136C58.4313 213.368 57.4393 212.291 56.714 210.904C55.9887 209.517 55.626 207.939 55.626 206.168ZM70.474 206.2C70.474 204.877 70.2073 203.725 69.674 202.744C69.1407 201.763 68.4153 201.016 67.498 200.504C66.602 199.971 65.61 199.704 64.522 199.704C63.434 199.704 62.442 199.96 61.546 200.472C60.65 200.984 59.9353 201.731 59.402 202.712C58.8687 203.693 58.602 204.845 58.602 206.168C58.602 207.512 58.8687 208.685 59.402 209.688C59.9353 210.669 60.65 211.427 61.546 211.96C62.442 212.472 63.434 212.728 64.522 212.728C65.61 212.728 66.602 212.472 67.498 211.96C68.4153 211.427 69.1407 210.669 69.674 209.688C70.2073 208.685 70.474 207.523 70.474 206.2ZM86.883 197.144C89.0163 197.144 90.7443 197.795 92.067 199.096C93.3897 200.376 94.051 202.232 94.051 204.664V215H91.171V205.08C91.171 203.331 90.7337 201.997 89.859 201.08C88.9843 200.141 87.7897 199.672 86.275 199.672C84.739 199.672 83.5123 200.152 82.595 201.112C81.699 202.072 81.251 203.469 81.251 205.304V215H78.339V197.464H81.251V199.96C81.827 199.064 82.6057 198.371 83.587 197.88C84.5897 197.389 85.6883 197.144 86.883 197.144ZM105.016 215.288C103.672 215.288 102.466 215.064 101.4 214.616C100.333 214.147 99.4904 213.507 98.8718 212.696C98.2531 211.864 97.9118 210.915 97.8478 209.848H100.856C100.941 210.723 101.346 211.437 102.072 211.992C102.818 212.547 103.789 212.824 104.984 212.824C106.093 212.824 106.968 212.579 107.608 212.088C108.248 211.597 108.568 210.979 108.568 210.232C108.568 209.464 108.226 208.899 107.544 208.536C106.861 208.152 105.805 207.779 104.376 207.416C103.074 207.075 102.008 206.733 101.176 206.392C100.365 206.029 99.6611 205.507 99.0638 204.824C98.4878 204.12 98.1998 203.203 98.1998 202.072C98.1998 201.176 98.4664 200.355 98.9998 199.608C99.5331 198.861 100.29 198.275 101.272 197.848C102.253 197.4 103.373 197.176 104.632 197.176C106.573 197.176 108.141 197.667 109.336 198.648C110.53 199.629 111.17 200.973 111.256 202.68H108.344C108.28 201.763 107.906 201.027 107.224 200.472C106.562 199.917 105.666 199.64 104.536 199.64C103.49 199.64 102.658 199.864 102.04 200.312C101.421 200.76 101.112 201.347 101.112 202.072C101.112 202.648 101.293 203.128 101.656 203.512C102.04 203.875 102.509 204.173 103.064 204.408C103.64 204.621 104.429 204.867 105.432 205.144C106.69 205.485 107.714 205.827 108.504 206.168C109.293 206.488 109.965 206.979 110.52 207.64C111.096 208.301 111.394 209.165 111.416 210.232C111.416 211.192 111.149 212.056 110.616 212.824C110.082 213.592 109.325 214.2 108.344 214.648C107.384 215.075 106.274 215.288 105.016 215.288ZM118.439 200.696C119.015 199.693 119.868 198.861 120.999 198.2C122.151 197.517 123.484 197.176 124.999 197.176C126.556 197.176 127.964 197.549 129.222 198.296C130.502 199.043 131.505 200.099 132.231 201.464C132.956 202.808 133.319 204.376 133.319 206.168C133.319 207.939 132.956 209.517 132.231 210.904C131.505 212.291 130.502 213.368 129.222 214.136C127.964 214.904 126.556 215.288 124.999 215.288C123.505 215.288 122.183 214.957 121.031 214.296C119.9 213.613 119.036 212.771 118.439 211.768V223.32H115.527V197.464H118.439V200.696ZM130.343 206.168C130.343 204.845 130.076 203.693 129.543 202.712C129.009 201.731 128.284 200.984 127.367 200.472C126.471 199.96 125.479 199.704 124.391 199.704C123.324 199.704 122.332 199.971 121.415 200.504C120.519 201.016 119.793 201.773 119.239 202.776C118.705 203.757 118.439 204.899 118.439 206.2C118.439 207.523 118.705 208.685 119.239 209.688C119.793 210.669 120.519 211.427 121.415 211.96C122.332 212.472 123.324 212.728 124.391 212.728C125.479 212.728 126.471 212.472 127.367 211.96C128.284 211.427 129.009 210.669 129.543 209.688C130.076 208.685 130.343 207.512 130.343 206.168ZM144.8 215.288C143.157 215.288 141.664 214.915 140.32 214.168C138.997 213.421 137.952 212.365 137.184 211C136.437 209.613 136.064 208.013 136.064 206.2C136.064 204.408 136.448 202.829 137.216 201.464C138.005 200.077 139.072 199.021 140.416 198.296C141.76 197.549 143.264 197.176 144.928 197.176C146.592 197.176 148.096 197.549 149.44 198.296C150.784 199.021 151.84 200.067 152.608 201.432C153.397 202.797 153.792 204.387 153.792 206.2C153.792 208.013 153.386 209.613 152.576 211C151.786 212.365 150.709 213.421 149.344 214.168C147.978 214.915 146.464 215.288 144.8 215.288ZM144.8 212.728C145.845 212.728 146.826 212.483 147.744 211.992C148.661 211.501 149.397 210.765 149.952 209.784C150.528 208.803 150.816 207.608 150.816 206.2C150.816 204.792 150.538 203.597 149.984 202.616C149.429 201.635 148.704 200.909 147.808 200.44C146.912 199.949 145.941 199.704 144.896 199.704C143.829 199.704 142.848 199.949 141.952 200.44C141.077 200.909 140.373 201.635 139.84 202.616C139.306 203.597 139.04 204.792 139.04 206.2C139.04 207.629 139.296 208.835 139.808 209.816C140.341 210.797 141.045 211.533 141.92 212.024C142.794 212.493 143.754 212.728 144.8 212.728ZM160.532 200.312C161.044 199.309 161.77 198.531 162.708 197.976C163.668 197.421 164.831 197.144 166.196 197.144V200.152H165.428C162.164 200.152 160.532 201.923 160.532 205.464V215H157.62V197.464H160.532V200.312ZM173.11 199.864V210.2C173.11 211.053 173.291 211.661 173.654 212.024C174.016 212.365 174.646 212.536 175.542 212.536H177.686V215H175.062C173.44 215 172.224 214.627 171.414 213.88C170.603 213.133 170.198 211.907 170.198 210.2V199.864H167.926V197.464H170.198V193.048H173.11V197.464H177.686V199.864H173.11ZM180.126 206.168C180.126 204.376 180.489 202.808 181.214 201.464C181.939 200.099 182.931 199.043 184.19 198.296C185.47 197.549 186.889 197.176 188.446 197.176C189.982 197.176 191.315 197.507 192.446 198.168C193.577 198.829 194.419 199.661 194.974 200.664V197.464H197.918V215H194.974V211.736C194.398 212.76 193.534 213.613 192.382 214.296C191.251 214.957 189.929 215.288 188.414 215.288C186.857 215.288 185.449 214.904 184.19 214.136C182.931 213.368 181.939 212.291 181.214 210.904C180.489 209.517 180.126 207.939 180.126 206.168ZM194.974 206.2C194.974 204.877 194.707 203.725 194.174 202.744C193.641 201.763 192.915 201.016 191.998 200.504C191.102 199.971 190.11 199.704 189.022 199.704C187.934 199.704 186.942 199.96 186.046 200.472C185.15 200.984 184.435 201.731 183.902 202.712C183.369 203.693 183.102 204.845 183.102 206.168C183.102 207.512 183.369 208.685 183.902 209.688C184.435 210.669 185.15 211.427 186.046 211.96C186.942 212.472 187.934 212.728 189.022 212.728C190.11 212.728 191.102 212.472 191.998 211.96C192.915 211.427 193.641 210.669 194.174 209.688C194.707 208.685 194.974 207.523 194.974 206.2ZM206.391 199.864V210.2C206.391 211.053 206.572 211.661 206.935 212.024C207.298 212.365 207.927 212.536 208.823 212.536H210.967V215H208.343C206.722 215 205.506 214.627 204.695 213.88C203.884 213.133 203.479 211.907 203.479 210.2V199.864H201.207V197.464H203.479V193.048H206.391V197.464H210.967V199.864H206.391ZM215.999 194.616C215.445 194.616 214.975 194.424 214.591 194.04C214.207 193.656 214.015 193.187 214.015 192.632C214.015 192.077 214.207 191.608 214.591 191.224C214.975 190.84 215.445 190.648 215.999 190.648C216.533 190.648 216.981 190.84 217.343 191.224C217.727 191.608 217.919 192.077 217.919 192.632C217.919 193.187 217.727 193.656 217.343 194.04C216.981 194.424 216.533 194.616 215.999 194.616ZM217.407 197.464V215H214.495V197.464H217.407ZM230.018 215.288C228.376 215.288 226.882 214.915 225.538 214.168C224.216 213.421 223.17 212.365 222.402 211C221.656 209.613 221.282 208.013 221.282 206.2C221.282 204.408 221.666 202.829 222.434 201.464C223.224 200.077 224.29 199.021 225.634 198.296C226.978 197.549 228.482 197.176 230.146 197.176C231.81 197.176 233.314 197.549 234.658 198.296C236.002 199.021 237.058 200.067 237.826 201.432C238.616 202.797 239.01 204.387 239.01 206.2C239.01 208.013 238.605 209.613 237.794 211C237.005 212.365 235.928 213.421 234.562 214.168C233.197 214.915 231.682 215.288 230.018 215.288ZM230.018 212.728C231.064 212.728 232.045 212.483 232.962 211.992C233.88 211.501 234.616 210.765 235.17 209.784C235.746 208.803 236.034 207.608 236.034 206.2C236.034 204.792 235.757 203.597 235.202 202.616C234.648 201.635 233.922 200.909 233.026 200.44C232.13 199.949 231.16 199.704 230.114 199.704C229.048 199.704 228.066 199.949 227.17 200.44C226.296 200.909 225.592 201.635 225.058 202.616C224.525 203.597 224.258 204.792 224.258 206.2C224.258 207.629 224.514 208.835 225.026 209.816C225.56 210.797 226.264 211.533 227.138 212.024C228.013 212.493 228.973 212.728 230.018 212.728ZM251.383 197.144C253.516 197.144 255.244 197.795 256.567 199.096C257.89 200.376 258.551 202.232 258.551 204.664V215H255.671V205.08C255.671 203.331 255.234 201.997 254.359 201.08C253.484 200.141 252.29 199.672 250.775 199.672C249.239 199.672 248.012 200.152 247.095 201.112C246.199 202.072 245.751 203.469 245.751 205.304V215H242.839V197.464H245.751V199.96C246.327 199.064 247.106 198.371 248.087 197.88C249.09 197.389 250.188 197.144 251.383 197.144Z" fill="white"/>
</g>
<g filter="url(#filter2_d)">
<path d="M79 141.242C42.6 157.642 14.5 134.408 5 120.742V21.7415C5 7.74176 18.5 1.47482 27 1.97492C139.167 0.641588 367.5 0.708755 379 1.97537C392.115 3.41982 396.5 15.8089 397 20.9756C397.667 77.9756 397.618 201.932 397 218C396.5 231 378.661 214.832 374.5 211C355.5 193.5 351 192 345.5 191C326.645 187.572 320 208.267 272 187.5C225 174.5 209.5 195.525 172 173C162.226 167.129 124.5 120.742 79 141.242Z" fill="#9DE6FB"/>
<path d="M79 141.242C42.6 157.642 14.5 134.408 5 120.742V21.7415C5 7.74176 18.5 1.47482 27 1.97492C139.167 0.641588 367.5 0.708755 379 1.97537C392.115 3.41982 396.5 15.8089 397 20.9756C397.667 77.9756 397.618 201.932 397 218C396.5 231 378.661 214.832 374.5 211C355.5 193.5 351 192 345.5 191C326.645 187.572 320 208.267 272 187.5C225 174.5 209.5 195.525 172 173C162.226 167.129 124.5 120.742 79 141.242Z" stroke="#9DE6FB"/>
</g>
<circle cx="101.302" cy="49.7778" r="5.52056" transform="rotate(-24.2802 101.302 49.7778)" fill="#1081A3"/>
<circle cx="124.302" cy="41.7778" r="5.52056" transform="rotate(-24.2802 124.302 41.7778)" fill="#1081A3"/>
<circle cx="147.302" cy="39.7778" r="5.52056" transform="rotate(-24.2802 147.302 39.7778)" fill="#1081A3"/>
<circle cx="170.302" cy="41.7778" r="5.52056" transform="rotate(-24.2802 170.302 41.7778)" fill="#1081A3"/>
<circle cx="193.302" cy="48.7778" r="5.52056" transform="rotate(-24.2802 193.302 48.7778)" fill="#1081A3"/>
<circle cx="215.302" cy="59.7778" r="5.52056" transform="rotate(-24.2802 215.302 59.7778)" fill="#1081A3"/>
<circle cx="230.302" cy="74.7778" r="5.52056" transform="rotate(-24.2802 230.302 74.7778)" fill="#1081A3"/>
<path d="M35.9375 75.6011L46 78.5061L57.0601 70.4736L41.1875 70.9286C41.0321 70.9371 40.8815 70.9853 40.75 71.0686L35.7275 73.9561C35.5713 74.0427 35.4446 74.1741 35.3639 74.3335C35.2832 74.4928 35.2521 74.6727 35.2748 74.8498C35.2974 75.027 35.3726 75.1933 35.4908 75.3273C35.609 75.4612 35.7646 75.5566 35.9375 75.6011V75.6011Z" fill="black"/>
<path d="M85.41 66.6058L74.385 64.2258C73.4578 64.0245 72.4981 64.025 71.5712 64.2273C70.6442 64.4296 69.7715 64.829 69.0125 65.3983L35.71 89.6008L27.7125 89.2508C27.2544 89.2352 26.803 89.3639 26.422 89.6187C26.041 89.8736 25.7497 90.2416 25.5892 90.671C25.4287 91.1003 25.4071 91.5692 25.5275 92.0115C25.6478 92.4537 25.9041 92.847 26.26 93.1358L34.0475 99.3133C34.1757 99.4167 34.3283 99.4855 34.4907 99.5131C34.6531 99.5406 34.8199 99.5261 34.975 99.4708C37.1975 98.6133 45.475 94.2208 55.2575 88.8483L57.2175 108.991C57.2341 109.165 57.2981 109.332 57.4024 109.473C57.5068 109.613 57.6476 109.723 57.8097 109.79C57.9718 109.856 58.149 109.877 58.3222 109.851C58.4954 109.824 58.658 109.751 58.7925 109.638L63.1675 105.998C63.407 105.797 63.5681 105.519 63.6225 105.211L67.77 81.9533C74.77 78.0683 81.455 74.3058 86.1625 71.6458C86.651 71.3799 87.0461 70.9704 87.294 70.4725C87.542 69.9747 87.6309 69.4127 87.5488 68.8626C87.4667 68.3125 87.2174 67.801 86.8349 67.3973C86.4523 66.9936 85.9549 66.7173 85.41 66.6058V66.6058Z" fill="black"/>
<circle cx="260.36" cy="109.835" r="4.05196" transform="rotate(-24.2802 260.36 109.835)" fill="#B6CFE7"/>
<circle cx="252.36" cy="98.835" r="4.05196" transform="rotate(-24.2802 252.36 98.835)" fill="#1081A3"/>
<circle cx="243.36" cy="88.835" r="4.05196" transform="rotate(-24.2802 243.36 88.835)" fill="#1081A3"/>
<path d="M287.367 47.8015C282.487 47.8015 278.532 43.8458 278.532 38.9662C278.532 34.0866 282.487 30.1309 287.367 30.1309C292.247 30.1309 296.202 34.0866 296.202 38.9662C296.202 43.8458 292.247 47.8015 287.367 47.8015Z" fill="#FFCF53"/>
<path d="M329.836 67.5761C329.836 70.8245 332.47 73.4906 335.718 73.4906H359.361C361.84 73.4906 363.85 71.4484 363.85 68.9693C363.85 66.4902 361.84 64.448 359.361 64.448C358.987 64.448 358.626 64.4988 358.278 64.5848C358.359 64.2404 358.401 63.8878 358.402 63.534C358.402 60.9617 356.317 58.8761 353.744 58.8761C352.768 58.8761 351.862 59.1777 351.114 59.6911C350.24 56.3241 347.181 53.838 343.541 53.838C339.22 53.838 335.718 57.3407 335.718 61.6613C332.469 61.6616 329.836 64.3278 329.836 67.5761ZM258.307 53.8859C258.867 53.8859 259.411 53.9552 259.932 54.0839C259.816 53.5771 259.752 53.0503 259.752 52.5084C259.752 48.6313 262.895 45.488 266.772 45.488C268.244 45.488 269.609 45.9415 270.737 46.7153C272.054 41.6412 276.665 37.8945 282.151 37.8945C288.663 37.8945 293.942 43.1736 293.942 49.6857C298.838 49.6857 302.807 53.6646 302.807 58.5607C302.807 63.4568 298.838 67.4356 293.942 67.4356H258.306C254.57 67.4356 251.541 64.3968 251.541 60.6605C251.542 56.9247 254.57 53.8859 258.307 53.8859Z" fill="#C2F4FF"/>
<path d="M248.872 119.192C248.872 109.152 257.011 101.04 267.051 101.04H314.317C324.357 101.04 332.496 109.164 332.496 119.204C332.496 129.244 324.357 137.368 314.317 137.368H298.163C306.968 137.368 309.497 144.028 309.878 152.505H319.958C327.612 152.505 333.818 158.776 333.818 166.431C333.818 174.085 327.612 180.356 319.958 180.356H289.782C285.926 180.356 282.439 178.801 279.927 176.26C276.156 173.405 271.255 173.091 262.083 173.091H251.574C241.722 173.091 233.735 165.08 233.735 155.228C233.735 129.896 248.872 135.491 248.872 119.192V119.192Z" fill="#76DFFF"/>
<path d="M297.966 140.658C297.966 150.698 300.246 158.837 310.287 158.837H350.336C360.376 158.837 368.515 150.698 368.515 140.658C368.515 130.618 360.376 122.479 350.336 122.479H310.287C300.246 122.479 297.966 130.618 297.966 140.658V140.658Z" fill="#F9E7C0"/>
<path d="M280.988 126.366C281.126 126.222 281.281 126.096 281.45 125.991L281.743 125.809C282.11 125.552 282.487 125.308 282.872 125.079C285.792 123.122 290.589 119.323 291.551 114.286C291.743 106.797 297.868 100.737 305.402 100.737H335.578C340.861 100.737 345.453 103.765 347.792 108.003H369.969C378.579 108.003 385.558 115.024 385.558 123.634C385.558 146.208 375.056 135.411 375.056 161.885C375.056 171.925 366.917 180.054 356.877 180.054H338.495C337.727 180.356 336.939 180.356 336.133 180.356H305.957C298.302 180.356 292.097 174.133 292.097 166.479C292.097 162.974 286.081 159.108 282.566 156.121C277.413 152.912 273.98 147.204 273.98 140.686C273.981 134.859 276.725 129.686 280.988 126.366V126.366Z" fill="#F9E7C0"/>
<path d="M328.221 144.845C307.49 144.845 290.684 140.598 290.684 135.36C290.684 130.121 307.49 125.874 328.221 125.874C348.952 125.874 365.757 130.121 365.757 135.36C365.757 140.598 348.952 144.845 328.221 144.845Z" fill="#E5D4B1"/>
<path d="M290.547 89.0354L363.105 138.324C364.348 139.169 366.095 138.453 366.307 136.966C372.11 96.0906 326.491 65.0918 290.63 85.5588C289.325 86.3035 289.304 88.191 290.547 89.0354Z" fill="#78FE9D"/>
<path d="M311.193 135.249C311.193 135.249 311.22 135.121 311.276 135.04L343.448 88.873C343.594 88.6632 343.883 88.6251 344.092 88.7716C344.302 88.9178 344.354 89.1576 344.208 89.3674L312.22 135.249H311.193V135.249Z" fill="#597B91"/>
<path d="M343.287 87.7002C343.287 87.7002 342.675 87.8588 341.65 88.1688C340.667 88.5082 339.23 88.9699 337.565 89.5653C335.928 90.1805 334.087 90.9458 332.167 91.8026C330.291 92.6896 328.263 93.6174 326.392 94.6546C325.454 95.1711 324.46 95.6488 323.582 96.1889C322.703 96.7283 321.799 97.2324 320.994 97.7685C319.39 98.8457 317.939 99.8822 316.831 100.866C314.563 102.796 313.436 104.596 313.436 104.596L340.152 122.752C340.152 122.752 341.185 121.337 342.209 118.54C342.747 117.16 343.216 115.439 343.671 113.562C343.895 112.621 344.054 111.598 344.255 110.586C344.457 109.575 344.561 108.477 344.72 107.418C345.044 105.304 345.211 103.08 345.392 101.013C345.529 98.9147 345.609 96.9227 345.618 95.1741C345.6 93.4061 345.534 91.8979 345.512 90.8586C345.447 89.79 345.383 89.1606 345.383 89.1606L343.287 87.7002V87.7002Z" fill="#D0F9C6"/>
<path d="M249.392 162.588C249.925 163.808 250.802 164.846 251.916 165.576C253.03 166.305 254.332 166.694 255.664 166.694C258.237 166.694 260.578 165.249 261.746 162.979C262.915 165.249 265.256 166.694 267.829 166.694C269.161 166.694 270.463 166.305 271.577 165.575C272.691 164.846 273.568 163.808 274.101 162.588C274.12 162.538 274.119 162.483 274.099 162.434C274.079 162.385 274.04 162.345 273.991 162.324C273.942 162.302 273.887 162.301 273.837 162.319C273.787 162.338 273.747 162.375 273.723 162.423C273.223 163.569 272.398 164.545 271.351 165.231C270.304 165.917 269.08 166.282 267.829 166.283C266.578 166.282 265.353 165.917 264.307 165.231C263.26 164.546 262.435 163.57 261.935 162.423C261.93 162.413 261.922 162.406 261.917 162.397C261.909 162.384 261.902 162.371 261.891 162.36C261.879 162.348 261.864 162.34 261.849 162.331C261.842 162.326 261.837 162.32 261.828 162.316C261.828 162.316 261.826 162.316 261.825 162.316C261.809 162.309 261.792 162.307 261.774 162.305C261.765 162.303 261.756 162.299 261.746 162.299C261.737 162.299 261.727 162.303 261.718 162.305C261.7 162.307 261.683 162.309 261.667 162.316C261.666 162.316 261.665 162.316 261.664 162.316C261.655 162.32 261.65 162.327 261.642 162.331C261.628 162.34 261.614 162.348 261.601 162.36C261.591 162.371 261.584 162.384 261.576 162.397C261.57 162.406 261.562 162.413 261.558 162.423C261.057 163.569 260.233 164.545 259.186 165.231C258.139 165.917 256.915 166.282 255.664 166.283C254.412 166.282 253.188 165.917 252.141 165.231C251.094 164.546 250.27 163.57 249.769 162.423C249.759 162.398 249.743 162.375 249.724 162.356C249.704 162.338 249.681 162.323 249.656 162.313C249.631 162.303 249.604 162.298 249.577 162.299C249.55 162.3 249.523 162.305 249.498 162.316C249.394 162.362 249.347 162.483 249.392 162.588V162.588ZM244.199 138.216C244.223 138.205 244.248 138.2 244.274 138.199C244.3 138.199 244.326 138.203 244.351 138.213C244.375 138.222 244.397 138.236 244.416 138.254C244.435 138.273 244.45 138.294 244.46 138.318C244.943 139.423 245.737 140.363 246.746 141.024C247.754 141.684 248.934 142.037 250.14 142.037C251.345 142.037 252.525 141.684 253.534 141.024C254.542 140.363 255.336 139.423 255.819 138.318C255.823 138.308 255.831 138.301 255.837 138.293C255.844 138.281 255.851 138.268 255.861 138.258C255.872 138.247 255.885 138.24 255.898 138.232C255.906 138.227 255.912 138.22 255.921 138.216C255.922 138.215 255.924 138.215 255.925 138.215C255.939 138.209 255.955 138.208 255.97 138.205C255.981 138.204 255.991 138.2 256.001 138.2C256.011 138.2 256.021 138.204 256.032 138.205C256.047 138.208 256.062 138.209 256.076 138.215L256.08 138.216C256.09 138.22 256.097 138.228 256.106 138.234C256.118 138.241 256.13 138.248 256.14 138.258C256.151 138.269 256.158 138.281 256.166 138.293C256.171 138.302 256.179 138.309 256.183 138.318C256.665 139.423 257.459 140.363 258.468 141.024C259.477 141.684 260.656 142.037 261.862 142.037C261.913 142.04 261.96 142.062 261.995 142.099C262.03 142.136 262.05 142.185 262.05 142.235C262.05 142.286 262.03 142.335 261.995 142.372C261.96 142.409 261.913 142.431 261.862 142.434C259.382 142.434 257.127 141.041 256.001 138.854C255.447 139.932 254.607 140.836 253.573 141.467C252.54 142.099 251.352 142.433 250.14 142.434C248.857 142.433 247.602 142.058 246.529 141.356C245.456 140.653 244.611 139.653 244.097 138.477C244.086 138.453 244.081 138.427 244.08 138.401C244.08 138.375 244.084 138.349 244.094 138.325C244.103 138.301 244.117 138.279 244.135 138.26C244.153 138.241 244.175 138.226 244.199 138.216V138.216ZM255.798 115.305C257.049 115.304 258.273 114.939 259.32 114.253C260.367 113.568 261.192 112.592 261.692 111.445C261.697 111.435 261.705 111.428 261.71 111.419C261.718 111.407 261.725 111.394 261.736 111.383C261.748 111.371 261.762 111.363 261.776 111.355C261.784 111.35 261.79 111.343 261.799 111.339C261.8 111.339 261.801 111.339 261.802 111.339C261.819 111.331 261.837 111.329 261.856 111.327C261.864 111.326 261.872 111.322 261.88 111.322C261.893 111.322 261.905 111.327 261.918 111.329C261.932 111.332 261.946 111.333 261.959 111.338L261.964 111.339C261.974 111.344 261.981 111.352 261.99 111.358C262.003 111.366 262.016 111.373 262.026 111.383C262.037 111.394 262.044 111.407 262.053 111.421C262.058 111.429 262.066 111.436 262.07 111.445C262.571 112.592 263.395 113.568 264.442 114.254C265.489 114.939 266.713 115.305 267.964 115.305C269.215 115.305 270.439 114.939 271.486 114.254C272.533 113.568 273.358 112.592 273.858 111.445C273.863 111.435 273.871 111.429 273.876 111.42C273.884 111.407 273.891 111.394 273.902 111.383C273.914 111.372 273.928 111.364 273.942 111.355C273.95 111.35 273.956 111.343 273.965 111.34C273.966 111.339 273.967 111.339 273.968 111.339C273.985 111.332 274.004 111.33 274.023 111.327C274.031 111.326 274.038 111.323 274.046 111.323C274.059 111.323 274.071 111.327 274.084 111.33C274.098 111.333 274.112 111.333 274.126 111.339C274.127 111.34 274.129 111.339 274.13 111.34C274.14 111.344 274.147 111.352 274.156 111.358C274.169 111.366 274.182 111.373 274.192 111.383C274.203 111.394 274.21 111.408 274.219 111.421C274.224 111.429 274.232 111.436 274.236 111.446C274.737 112.593 275.561 113.568 276.608 114.254C277.655 114.94 278.879 115.305 280.13 115.306C280.185 115.306 280.237 115.327 280.276 115.366C280.314 115.405 280.336 115.457 280.336 115.512C280.336 115.566 280.314 115.618 280.276 115.657C280.237 115.696 280.185 115.717 280.13 115.717C277.557 115.717 275.216 114.272 274.047 112.003C272.879 114.272 270.538 115.717 267.965 115.717C265.391 115.717 263.05 114.272 261.882 112.003C260.714 114.272 258.372 115.717 255.799 115.717C255.685 115.717 255.593 115.625 255.593 115.512C255.593 115.398 255.684 115.305 255.798 115.305V115.305Z" fill="#00B1FF"/>
<defs>
<filter id="filter0_d" x="2" y="1.47559" width="399" height="243" filterUnits="userSpaceOnUse" color-interpolation-filters="sRGB">
<feFlood flood-opacity="0" result="BackgroundImageFix"/>
<feColorMatrix in="SourceAlpha" type="matrix" values="0 0 0 0 0 0 0 0 0 0 0 0 0 0 0 0 0 0 127 0" result="hardAlpha"/>
<feOffset dy="4"/>
<feGaussianBlur stdDeviation="2"/>
<feComposite in2="hardAlpha" operator="out"/>
<feColorMatrix type="matrix" values="0 0 0 0 0 0 0 0 0 0 0 0 0 0 0 0 0 0 0.25 0"/>
<feBlend mode="normal" in2="BackgroundImageFix" result="effect1_dropShadow"/>
<feBlend mode="normal" in="SourceGraphic" in2="effect1_dropShadow" result="shape"/>
</filter>
<filter id="filter1_d" x="22.0879" y="190.648" width="240.463" height="40.672" filterUnits="userSpaceOnUse" color-interpolation-filters="sRGB">
<feFlood flood-opacity="0" result="BackgroundImageFix"/>
<feColorMatrix in="SourceAlpha" type="matrix" values="0 0 0 0 0 0 0 0 0 0 0 0 0 0 0 0 0 0 127 0" result="hardAlpha"/>
<feOffset dy="4"/>
<feGaussianBlur stdDeviation="2"/>
<feComposite in2="hardAlpha" operator="out"/>
<feColorMatrix type="matrix" values="0 0 0 0 0 0 0 0 0 0 0 0 0 0 0 0 0 0 0.25 0"/>
<feBlend mode="normal" in2="BackgroundImageFix" result="effect1_dropShadow"/>
<feBlend mode="normal" in="SourceGraphic" in2="effect1_dropShadow" result="shape"/>
</filter>
<filter id="filter2_d" x="0.5" y="0.5" width="401.482" height="230.971" filterUnits="userSpaceOnUse" color-interpolation-filters="sRGB">
<feFlood flood-opacity="0" result="BackgroundImageFix"/>
<feColorMatrix in="SourceAlpha" type="matrix" values="0 0 0 0 0 0 0 0 0 0 0 0 0 0 0 0 0 0 127 0" result="hardAlpha"/>
<feOffset dy="4"/>
<feGaussianBlur stdDeviation="2"/>
<feComposite in2="hardAlpha" operator="out"/>
<feColorMatrix type="matrix" values="0 0 0 0 0 0 0 0 0 0 0 0 0 0 0 0 0 0 0.25 0"/>
<feBlend mode="normal" in2="BackgroundImageFix" result="effect1_dropShadow"/>
<feBlend mode="normal" in="SourceGraphic" in2="effect1_dropShadow" result="shape"/>
</filter>
</defs>
</svg>
